
<svg width="262" height="261" viewBox="0 0 262 261" fill="none" xmlns="http://www.w3.org/2000/svg">
<g filter="url(#filter0_d_3_14074)">
<path d="M165.837 224.524C218.181 205.473 245.169 147.596 226.118 95.2524C207.066 42.9089 149.189 15.9203 96.8456 34.9718C44.5021 54.0233 17.5135 111.9 36.565 164.244C55.6164 216.587 113.494 243.576 165.837 224.524Z" fill="#455A64"/>
<g opacity="0.3">
<path d="M190.037 162.923C189.331 167.557 189.602 172.287 190.835 176.81C192.111 181.319 191.786 186.131 189.916 190.428C187.634 194.452 181.537 196.415 178.131 193.142C176.755 191.015 175.591 188.757 174.656 186.403C172.45 183.977 170.075 181.712 167.548 179.623C165.857 177.356 164.571 174.814 163.748 172.108C158.217 157.73 149.446 143.807 135.997 136.568C134.399 135.562 132.552 135.025 130.664 135.018C129.56 135.125 128.51 135.552 127.644 136.245C126.778 136.938 126.131 137.869 125.784 138.923C125.582 140.286 125.258 141.629 124.818 142.936C124.375 143.525 123.812 144.012 123.165 144.365C122.519 144.717 121.804 144.928 121.069 144.981C120.334 145.035 119.597 144.931 118.906 144.676C118.215 144.42 117.586 144.02 117.063 143.502C114.998 141.252 113.636 138.447 113.147 135.433C112.175 131.827 111.227 128.17 110.279 124.513C109.574 122.672 109.466 120.656 109.97 118.751C110.988 116.166 113.968 114.996 115.444 112.501C117.412 109.485 116.388 105.387 117.05 101.826C117.712 98.2638 122.637 95.0664 124.62 98.1763C125.949 83.8132 144.948 97.7601 151.926 93.7726C153.736 92.3081 155.774 91.1495 157.958 90.3425C161.936 89.5756 165.503 93.1738 168.135 96.4305C172.461 101.881 176.81 107.28 181.173 112.717C181.851 113.846 182.757 114.821 183.832 115.58C184.907 116.34 186.129 116.867 187.42 117.128C189.409 117.213 191.247 115.948 193.261 115.981C198.579 116.089 199.672 124.121 197.065 128.774C194.459 133.427 189.921 137.335 189.789 142.705C189.684 146.745 192.15 150.361 192.052 154.654C191.644 157.468 190.969 160.236 190.037 162.923Z" fill="black"/>
</g>
<g opacity="0.3">
<path d="M99.5021 225.336C100.729 225.784 101.981 226.18 103.232 226.576C104.483 226.972 105.235 227.167 106.216 227.406C107.197 227.645 108.205 227.959 109.224 228.184L111.312 228.659C111.244 228.471 111.189 228.32 111.135 228.17C107.357 224.223 104.924 217.658 108.584 213.558C109.384 212.917 110.084 212.16 110.661 211.312C111.956 208.67 108.927 205.259 110.259 202.603C111.004 201.14 112.812 200.61 113.97 199.464C114.846 198.254 115.366 196.823 115.471 195.332C115.575 193.842 115.261 192.352 114.562 191.032C113.057 188.447 111.796 185.727 110.797 182.908C109.777 178.468 111.464 173.043 108.325 169.8C105.186 166.558 98.7986 169.01 93.8662 168.677C86.9273 168.094 82.5843 161.075 76.5673 157.177C71.3947 153.61 61.3313 151.227 55.5832 154.852C53.9276 155.731 52.6231 157.151 51.8872 158.875C51.1513 160.6 51.0285 162.524 51.5389 164.328L50.9749 164.533C49.2386 164.91 47.0922 165.563 45.8204 164.408C44.5485 163.253 44.3427 160.348 42.7017 159.114C41.7576 158.603 40.7273 158.271 39.6627 158.134C38.6543 157.82 37.5807 156.976 37.741 155.896C37.9014 154.816 38.8926 154.498 39.1727 153.629C39.29 153.278 39.2848 152.897 39.158 152.549C39.0313 152.201 38.7905 151.906 38.4748 151.712C36.0168 150.222 35.4815 155.186 35.0102 156.464C34.8052 156.837 34.6755 157.182 34.4808 157.466C34.4808 157.466 34.6176 157.842 34.686 158.03C34.7545 158.218 35.1102 159.195 35.3155 159.759C35.5207 160.323 35.7396 160.925 35.9586 161.526C36.1775 162.128 36.3007 162.466 36.4649 162.917L37.2311 165.022C41.2527 175.536 46.9204 185.344 54.0223 194.078C57.1294 197.848 60.5087 201.385 64.1328 204.661C65.6782 206.099 67.3226 207.459 69.0047 208.805C70.6867 210.152 73.5516 212.174 75.743 213.633C77.9344 215.092 79.8935 216.38 82.0369 217.473C85.0233 219.173 88.0988 220.711 91.2501 222.081C94.0534 223.301 96.9172 224.375 99.8303 225.302" fill="black"/>
</g>
<g opacity="0.3">
<path d="M208.578 64.851C207.824 64.0022 207.127 63.1037 206.492 62.1616C199.103 52.9726 188.165 51.4616 179.454 45.3082C176.603 43.3232 174.38 41.6626 170.829 42.3165C165.566 43.2956 164.035 47.0457 158.825 43.4925C157.406 42.5187 155.352 41.9041 154.197 43.176C154.942 44.0542 155.664 44.9836 156.423 45.8994C156.565 46.0988 156.65 46.3326 156.669 46.5762C156.929 47.2905 155.832 47.9027 155.118 47.6944C154.393 47.3854 153.73 46.9491 153.159 46.4063C152.559 46.0073 151.881 45.7395 151.17 45.6204C150.46 45.5013 149.732 45.5336 149.034 45.7151C148.337 45.8967 147.685 46.2233 147.123 46.6738C146.56 47.1244 146.099 47.6885 145.77 48.3294C145.558 47.8653 145.229 47.4646 144.814 47.1673C144.4 46.87 143.915 46.6864 143.407 46.6348C143.495 47.1182 143.48 47.6147 143.365 48.0922C143.249 48.5697 143.035 49.0176 142.735 49.4073C142.436 49.7969 142.058 50.1196 141.627 50.3545C141.195 50.5895 140.719 50.7316 140.23 50.7716C139.624 49.9275 141.224 49.1751 141.5 48.1803C141.777 47.1856 140.844 46.3758 139.859 46.0103C137.476 45.0527 134.836 44.946 132.384 45.7083C130.941 46.4584 129.33 46.8249 127.705 46.7727C126.775 46.5576 125.937 46.011 125.021 45.8335C123.995 45.8118 122.98 46.0559 122.075 46.5418C121.17 47.0277 120.406 47.7391 119.857 48.6071C117.813 50.565 116.576 53.2177 116.39 56.0424C116.442 58.876 119.506 61.6779 121.99 60.433C122.614 60.0591 123.303 59.8083 124.02 59.6941C125.018 59.6289 125.842 60.6062 126.273 61.5563C126.555 62.5536 127.051 63.4772 127.727 64.2629C128.455 64.9771 130.011 64.922 130.236 63.9033C130.505 63.0256 130.559 62.096 130.393 61.193C130.228 60.2899 129.847 59.44 129.284 58.715C128.155 57.2545 127.637 55.4127 127.84 53.578C128.386 51.8039 131.271 51.3074 131.901 53.0368C132.27 54.0518 131.252 55.2314 131.659 56.2328C132.066 57.2342 133.525 57.3841 134.527 56.9771C135.482 56.4604 136.508 56.087 137.572 55.8687C138.683 55.7625 139.951 56.7909 139.473 57.8164C138.752 59.6966 134.602 58.3545 134.583 60.4054C134.747 60.8565 134.938 61.3828 135.116 61.8715C135.664 63.3753 133.862 64.627 132.413 65.3247C131.06 66.1484 129.5 66.5686 127.916 66.5359C127.518 66.5102 127.13 66.4056 126.773 66.2282C126.416 66.0507 126.098 65.8041 125.838 65.5026C125.578 65.201 125.38 64.8506 125.256 64.4718C125.133 64.0931 125.086 63.6935 125.119 63.2964C124.873 63.2582 124.622 63.2725 124.382 63.3383C124.142 63.4041 123.919 63.52 123.727 63.6783C123.536 63.8366 123.38 64.0337 123.27 64.2567C123.159 64.4797 123.098 64.7234 123.089 64.9719C123.154 65.9768 123.506 66.9421 124.101 67.7539C122.423 67.939 121.487 69.8124 121.177 71.4155C120.866 73.0187 120.426 74.9671 119.086 75.9656C117.747 76.9641 115.245 77.1083 115.05 78.7969C114.856 80.4855 118.524 82.2585 118.09 84.4599C117.858 85.6938 116.379 86.1899 115.36 86.9011C114.746 87.4593 114.269 88.1515 113.966 88.9239C113.663 89.6963 113.542 90.5281 113.612 91.3549C113.683 92.1817 113.942 92.9811 114.372 93.6912C114.801 94.4013 115.388 95.003 116.087 95.4495C116.833 95.8089 117.643 96.0154 118.47 96.0568C119.297 96.0982 120.123 95.9738 120.901 95.6906C121.679 95.4075 122.392 94.9715 122.999 94.4084C123.605 93.8453 124.093 93.1663 124.434 92.4117C125.127 90.1896 125.548 87.8919 125.689 85.5684C126.133 83.2782 127.585 80.8338 129.885 80.7204C130.801 80.738 131.703 80.9461 132.534 81.3314L136.5 82.8684C136.939 82.9703 137.349 83.1726 137.697 83.4596C138.046 83.7465 138.323 84.1102 138.507 84.5221C138.767 85.2364 138.357 85.9817 138.364 86.7029C138.395 88.7777 141.687 89.7509 143.081 87.9662C143.64 87.0871 143.834 86.0245 143.622 85.0046C143.41 83.9846 142.808 83.0877 141.945 82.5044C139.596 80.8474 135.652 81.0058 134.803 78.2066C136.074 76.0836 139.427 76.5236 141.315 78.4337C143.202 80.3439 144.013 82.6884 145.671 84.5542C147.329 86.42 150.512 87.5606 152.234 85.7417C151.01 84.016 149.813 82.3655 148.626 80.626C149.573 79.132 152.158 81.5546 153.559 80.4912C154.389 79.8483 154.033 78.4026 153.278 77.6133C152.433 76.9176 151.654 76.1468 150.949 75.3102C150.754 74.8423 150.669 74.336 150.7 73.8301C150.731 73.3242 150.878 72.8322 151.128 72.3916C151.379 71.9511 151.727 71.5738 152.146 71.2886C152.565 71.0034 153.044 70.8179 153.545 70.7464C154.544 70.6459 155.55 70.8532 156.427 71.3405C157.305 71.8278 158.012 72.5716 158.455 73.4725C158.799 74.186 159.216 74.8617 159.7 75.4888C160.924 76.7463 162.892 76.5406 164.403 76.7145C165.914 76.8884 168.191 77.7627 168.14 79.6119C168.072 80.3605 167.628 81.2459 168.1 81.8405C168.571 82.4351 169.504 82.3084 169.737 82.9475C169.97 83.5866 169.508 83.8396 169.201 84.1644C168.323 84.9098 167.325 85.4434 166.511 86.2503C166.083 86.6287 165.77 87.1204 165.608 87.6688C165.446 88.2172 165.442 88.8001 165.596 89.3507C166.157 90.8921 168.311 90.9598 169.603 91.937C170.657 93.0811 171.564 94.3533 172.301 95.7235C173.347 96.7261 174.519 97.5876 175.788 98.2859C179.193 101.313 182.074 104.882 184.316 108.849C185.527 110.537 187.188 112.061 189.236 111.954C190.306 111.672 191.276 111.098 192.038 110.296C194.565 108.437 196.597 105.987 197.956 103.16C198.592 101.73 198.715 100.125 198.305 98.6141C197.895 97.1036 196.976 95.7808 195.704 94.8689C195.376 94.645 194.978 94.548 194.583 94.5958C194.073 94.7962 193.636 95.1482 193.332 95.6044C192.723 96.1453 191.962 96.487 191.153 96.5837C190.343 96.6805 189.524 96.5277 188.804 96.1458C187.352 95.4446 186.046 94.4755 184.954 93.2895L181.142 89.4829C181.522 88.9925 182.056 88.6444 182.658 88.4948C183.26 88.3452 183.895 88.4026 184.46 88.6581C185.588 89.2134 186.658 89.8795 187.654 90.6465C191.046 92.4887 195.027 92.921 198.735 91.8498C199.674 91.5827 200.648 91.4581 201.623 91.4798C204.758 91.7865 206.936 95.5492 210.071 95.3876C210.926 95.243 211.791 95.1559 212.658 95.1271C213.304 95.2789 213.911 95.5653 214.438 95.9674C214.966 96.3695 215.403 96.8783 215.721 97.4607C216.964 99.6038 218.352 101.659 219.876 103.612C220.639 104.583 221.66 105.321 222.821 105.741C223.982 106.161 225.238 106.247 226.446 105.989C227.112 105.788 227.724 105.441 228.239 104.974C228.754 104.507 229.158 103.931 229.423 103.288L229.327 103.025C228.561 100.919 228.372 99.1147 227.589 96.8454C227.424 96.3942 227.219 95.8303 227.055 95.3792C226.549 93.9882 226.07 92.6724 225.564 91.2814C225.057 89.8904 224.229 88.3183 223.61 86.9683C222.991 85.6184 222.636 85.1092 222.126 84.06C221.617 83.0108 220.902 81.866 220.303 80.8065C218.532 77.577 214.822 71.9451 212.753 68.9514" fill="black"/>
</g>
<g opacity="0.3">
<path d="M209.17 160.642C207.748 161.415 205.656 161.282 204.861 162.721C204.507 163.63 204.424 164.621 204.622 165.575C204.72 166.941 204.321 168.296 203.499 169.39C203.102 169.929 202.554 170.338 201.926 170.566C201.297 170.795 200.615 170.834 199.965 170.677C199.32 170.466 198.783 170.011 198.468 169.409C198.154 168.808 198.087 168.107 198.282 167.457C198.494 166.869 198.938 166.452 199.201 165.888C200.571 163.218 197.89 160.064 198.621 157.159C199.068 155.463 200.004 153.59 200.513 151.829C201.022 150.069 200.905 149.515 202.238 148.732C208.003 145.271 215.424 157.471 209.17 160.642Z" fill="black"/>
</g>
<g opacity="0.3">
<path d="M83.5637 65.8619C82.0945 67.6739 81.8594 70.1863 80.9577 72.3878C80.056 74.5893 77.9236 76.6852 75.7119 75.8723C75.184 75.6507 74.7065 75.3246 74.3081 74.9135C73.9097 74.5024 73.5986 74.015 73.3936 73.4804C72.713 71.9782 72.5341 70.2968 72.8831 68.685C73.2175 67.0305 74.075 65.5263 74.2967 63.913C74.5184 62.2996 73.6119 60.1602 71.937 60.0034C71.0482 59.9012 70.1257 60.4072 69.2574 60.1272C68.3891 59.8471 67.8345 57.1539 69.0168 55.9572C70.3876 55.097 71.9253 54.5373 73.5283 54.3152C79.2052 52.7173 81.9894 47.6167 85.0677 43.0903C87.4525 39.5827 93.3334 34.3342 97.9584 35.4608C98.4116 35.5634 98.8371 35.7634 99.2052 36.047C99.5733 36.3306 99.8753 36.6909 100.09 37.103C100.305 37.515 100.427 37.9689 100.449 38.4331C100.471 38.8973 100.391 39.3605 100.216 39.7908C99.7545 40.5121 98.9309 40.9397 98.521 41.6849C98.111 42.4302 98.3472 43.664 98.2484 44.6792C97.9928 47.3693 95.2724 49.2535 95.1297 51.9026C95.0208 53.4749 95.8759 55.1221 95.4115 56.6536C94.8948 57.8159 93.99 58.7623 92.852 59.3307L86.2736 63.5983C85.2493 64.1948 84.333 64.9601 83.5637 65.8619Z" fill="black"/>
</g>
<g opacity="0.3">
<path d="M32.2504 132.733C32.5298 132.186 32.9154 131.699 33.3844 131.302C33.8535 130.905 34.3969 130.604 34.9829 130.419C35.5689 130.233 36.1859 130.166 36.7981 130.221C37.4104 130.276 38.0057 130.452 38.5494 130.738C39.8655 132.006 40.669 133.714 40.8067 135.537L42.1556 142.752C42.2111 143.484 42.4667 144.186 42.8945 144.782C44.0536 145.978 46.3023 144.904 46.6539 143.414C46.9244 141.72 46.5374 139.988 45.5723 138.571C44.5971 137.183 44.0069 135.561 43.8619 133.871C44.0349 129.551 49.647 128.36 51.919 124.893C53.0409 122.548 53.6487 119.989 53.7012 117.39C54.0867 114.823 55.2616 111.968 57.7224 111.243C58.5118 110.956 59.4245 111.007 60.2379 110.668C60.7806 110.377 61.2374 109.949 61.5628 109.426C61.8882 108.903 62.0708 108.304 62.0924 107.689C62.114 107.074 61.9739 106.463 61.686 105.919C61.398 105.375 60.9724 104.916 60.4515 104.587C59.9763 104.334 59.3917 104.249 59.0019 103.88C58.6776 103.511 58.4916 103.04 58.4758 102.549C58.4601 102.058 58.6157 101.576 58.9158 101.187C59.5062 100.441 60.2731 99.8549 61.1472 99.4804L66.8955 96.3238C69.0417 95.2021 71.5122 92.983 70.3768 90.7992C69.2413 88.6154 66.466 88.9444 65.3785 87.1263C65.1677 86.6576 64.9183 86.2072 64.633 85.7798C63.5662 84.7205 61.8644 85.8934 60.8735 87.1481C60.5738 86.7622 60.1877 86.452 59.7462 86.2426C59.3046 86.0332 58.82 85.9304 58.3314 85.9426C57.8429 85.9547 57.3643 86.0813 56.9337 86.3124C56.503 86.5434 56.1326 86.8723 55.8524 87.2727C55.2722 88.8439 55.1822 90.5541 55.5941 92.1776C55.5114 96.2342 54.3148 100.19 52.1351 103.612C51.6754 104.876 50.7734 105.93 49.5962 106.58C48.3556 107.031 46.5607 106.194 46.7518 104.848C46.9428 103.501 47.7803 103.111 47.4041 102.311C47.0279 101.511 45.0282 101.984 44.3204 101.092C43.9776 97.8107 46.9474 95.3247 49.0044 92.7879C51.7554 89.5533 53.2351 85.4281 53.1675 81.1824C53.1947 80.8589 53.1513 80.5333 53.0403 80.2282C52.9292 79.9231 52.7532 79.6458 52.5243 79.4154C51.8747 78.8004 50.8048 79.0195 49.9777 79.3205C47.9476 80.0594 45.4289 80.9762 45.4433 83.3552C45.6303 84.496 45.898 85.6221 46.2442 86.7251C46.6554 90.1944 42.479 92.055 40.6819 94.8378C40.0452 96.0083 39.3317 97.1356 38.5465 98.2122C37.4272 99.2547 36.1296 100.087 34.7156 100.671L34.0013 100.931C33.5984 102.397 33.1954 103.864 32.8438 105.354C32.4922 106.845 32.1919 108.359 31.9565 109.935C30.6417 117.149 30.0996 124.482 30.3394 131.811C30.4222 134.378 30.5802 136.917 30.8408 139.505C31.1013 142.092 31.4745 144.638 31.9504 147.233C32.0555 144.978 31.9048 142.719 31.5008 140.499C30.8788 137.899 31.1425 135.166 32.2504 132.733Z" fill="black"/>
</g>
<path d="M90.7689 39.5675C90.7689 39.5675 88.4142 40.9354 84.2074 43.5309C78.248 47.1989 72.6625 51.4422 67.5309 56.1998C59.9252 63.3427 53.4738 71.6225 48.4072 80.7438C42.1045 92.0916 38.0814 104.562 36.5642 117.454L36.1811 116.401L36.7348 116.753L36.6908 117.45C36.4146 119.85 36.2169 122.349 35.9442 124.875C35.6715 127.401 35.8944 130.002 35.8508 132.572C36.3758 147.359 40.3281 161.821 47.3959 174.82C53.1242 185.468 60.5951 195.081 69.4987 203.262C75.5611 208.74 82.1833 213.565 89.2559 217.656C91.7754 219.081 93.8128 220 95.1119 220.761C96.411 221.523 97.1938 221.92 97.1323 221.985C96.3832 221.778 95.6552 221.501 94.9582 221.158C93.5737 220.512 91.4508 219.71 88.8698 218.35C70.5863 208.726 55.5706 193.891 45.7246 175.726C38.399 162.509 34.309 147.744 33.7897 132.641C33.806 129.996 33.7335 127.34 33.89 124.728L34.6192 117.14L35.016 118.23L34.4247 117.892L34.52 117.219C37.3621 93.354 48.7731 71.3331 66.6317 55.2498C71.875 50.5231 77.6236 46.3891 83.7732 42.9226C85.9433 41.7496 87.6656 40.8673 88.8413 40.3542C89.4348 40.0439 90.0669 39.8139 90.721 39.6701L90.7689 39.5675Z" fill="white"/>
<g opacity="0.4">
<path d="M226.383 95.6239L225.658 93.6314C225.638 93.5259 225.601 93.4244 225.549 93.3307C225.336 92.628 225.085 91.9376 224.796 91.2629C224.563 90.6238 224.317 89.9472 224.084 89.308C223.852 88.6689 223.387 87.3907 222.781 86.5466C221.642 84.2363 220.418 82.0423 219.119 79.8756C219.018 79.5435 218.899 79.2172 218.763 78.8981L218.434 77.9959C218.133 77.1688 217.443 76.441 216.967 75.7199C214.164 71.4417 211.036 67.3848 207.612 63.585C206.778 62.6966 205.995 61.8321 205.136 60.9949C204.278 60.1577 202.716 58.5551 201.481 57.3865L198.446 54.6597C197.228 53.6552 196.011 52.6506 194.784 51.7349L193.31 50.6108C192.924 50.3682 192.562 50.0744 192.213 49.8181L191.645 49.4287L189.413 47.8571L188.627 47.3343C188.436 47.2274 188.251 47.1099 188.073 46.9824L186.979 46.3162C185.522 45.3562 184.005 44.461 182.528 43.6787C181.242 42.9545 179.933 42.2816 178.637 41.6462L177.444 41.0586L176.559 40.6145C174.2 39.5146 171.817 38.4659 169.401 37.5574L168.313 37.1442L166.741 36.567C165.756 36.2015 164.799 35.9112 163.829 35.5834L163.011 35.3273L161.583 34.9107C157.716 33.7789 153.782 32.893 149.803 32.2583C150.579 32.4017 151.331 32.5963 152.083 32.7909C152.89 32.9798 153.693 33.1983 154.493 33.4464L155.922 33.863L156.739 34.1192L159.651 35.1027L161.224 35.6799L162.311 36.0932C164.779 37.0256 167.261 37.9956 169.521 39.1742L170.43 39.567C172.149 40.4312 173.818 41.2716 175.64 42.1837L175.708 42.3717L176.286 42.6722C177.958 43.639 179.657 44.6811 181.281 45.7505C181.472 45.8574 181.656 45.9749 181.834 46.1024C182.111 46.253 182.375 46.4279 182.621 46.6251L184.207 47.7081L185.407 48.5487L186.518 49.3789C187.281 49.9529 188.043 50.527 188.768 51.1147C189.493 51.7023 190.682 52.6317 191.616 53.4415C192.549 54.2513 194.04 55.5395 195.223 56.6842C196.406 57.8289 197.315 58.69 198.358 59.8006C199.401 60.9111 200.05 61.5262 200.847 62.4284C201.644 63.3305 201.658 63.368 202.075 63.8122C205.629 67.8812 208.838 72.2386 211.67 76.8392L212.2 77.7106C212.282 77.9361 212.378 78.1993 212.473 78.4624C213.335 79.8944 214.159 81.3401 214.908 82.813C215.223 83.6777 215.815 84.4842 216.205 85.3215C216.981 86.8696 217.668 88.4076 218.37 89.9831L219.095 91.9756C219.396 92.8027 219.697 93.6298 219.984 94.4193L221.257 97.9156C221.968 99.8705 222.625 101.675 223.026 103.828L223.878 107.222C223.973 107.428 224.051 107.642 224.11 107.861C224.542 109.748 224.99 111.799 225.254 113.576C225.432 114.065 225.411 114.711 225.514 115.227C226.844 124.271 226.921 133.455 225.741 142.52C225.587 143.853 225.383 145.162 225.164 146.434C223.916 153.536 221.938 160.49 219.264 167.187C218.434 169.235 217.539 171.221 216.607 173.22C214.623 177.343 212.359 181.325 209.832 185.138C205.964 190.943 201.505 196.333 196.527 201.221C194.999 202.756 193.356 204.205 191.712 205.655C190.834 206.4 189.993 207.132 189.087 207.802C188.182 208.473 186.35 209.991 184.922 210.979C181.889 213.175 178.723 215.18 175.442 216.984C170.706 219.665 165.756 221.951 160.644 223.818C150.578 227.482 139.989 229.511 129.281 229.826C127.056 229.912 125.015 229.803 122.585 229.793C120.155 229.784 118.986 229.613 117.222 229.446C115.458 229.279 113.681 229.075 111.89 228.833L109.576 228.44C110.837 228.748 112.085 229.017 113.356 229.236C113.879 229.386 114.413 229.447 114.922 229.56L115.185 229.464L115.732 229.563L118.808 230.061C122.337 230.608 125.897 230.934 129.466 231.036C131.722 231.151 133.975 231.14 136.214 231.092C156.203 230.454 175.554 223.9 191.817 212.259L193.231 211.233L196.02 209.069L198.631 206.884C203.138 203.042 207.296 198.807 211.055 194.23C214.161 190.482 216.985 186.509 219.501 182.343C222.168 177.894 224.49 173.248 226.449 168.446C227.231 166.501 227.938 164.583 228.594 162.642C229.902 158.756 230.977 154.796 231.814 150.783L232.397 147.591C232.639 146.268 232.807 144.972 233.011 143.663C233.257 141.53 233.448 139.247 233.608 137.23C234.195 128.234 233.556 119.199 231.709 110.375L231.354 109.397C231.233 109.002 231.092 108.613 230.93 108.232L230.553 106.496L229.951 104.841L229.527 103.676C229.226 102.849 228.925 102.022 228.624 101.195C228.323 100.368 228.131 99.8413 227.871 99.127C227.611 98.4127 227.283 97.5105 226.982 96.6834C226.803 96.319 226.603 95.9652 226.383 95.6239Z" fill="black"/>
</g>
</g>
<defs>
<filter id="filter0_d_3_14074" x="0.28418" y="7.86185" width="253.535" height="252.264" filterUnits="userSpaceOnUse" color-interpolation-filters="sRGB">
<feFlood flood-opacity="0" result="BackgroundImageFix"/>
<feColorMatrix in="SourceAlpha" type="matrix" values="0 0 0 0 0 0 0 0 0 0 0 0 0 0 0 0 0 0 127 0" result="hardAlpha"/>
<feOffset dx="-5" dy="4"/>
<feGaussianBlur stdDeviation="12.5"/>
<feComposite in2="hardAlpha" operator="out"/>
<feColorMatrix type="matrix" values="0 0 0 0 0.270588 0 0 0 0 0.352941 0 0 0 0 0.392157 0 0 0 1 0"/>
<feBlend mode="normal" in2="BackgroundImageFix" result="effect1_dropShadow_3_14074"/>
<feBlend mode="normal" in="SourceGraphic" in2="effect1_dropShadow_3_14074" result="shape"/>
</filter>
</defs>
</svg>
