
<svg width="138" height="138" viewBox="0 0 138 138" fill="none" xmlns="http://www.w3.org/2000/svg">
<g filter="url(#filter0_d_3_17763)">
<path d="M74 123C101.062 123 123 101.062 123 74C123 46.938 101.062 25 74 25C46.9381 25 25 46.938 25 74C25 101.062 46.9381 123 74 123Z" fill="#DB6C49"/>
<g opacity="0.13">
<path d="M120.02 57.151C119.907 56.8241 119.781 56.5098 119.655 56.1828V56.0445L119.24 55.0512C119.102 54.7117 118.951 54.3596 118.8 54.0327C118.649 53.7058 118.423 53.1777 118.209 52.7753C117.731 51.7443 117.203 50.751 116.638 49.7828C108.812 52.1395 101.232 55.2471 94.0047 59.0622C79.7083 66.8831 74.9429 78.3755 57.9935 85.7815C41.044 93.1874 32.6698 84.851 35.9516 79.4946C39.2334 74.1382 60.0807 63.5133 82.374 55.3907C97.5631 49.8582 108.339 46.5891 113.645 45.0928C112.752 43.8354 111.809 42.6786 110.803 41.547C110.552 41.2703 110.313 40.9937 110.049 40.7171L109.558 40.189L109.42 40.0507C109.056 39.6609 108.666 39.2711 108.276 38.8939L107.76 38.4035L107.22 37.888C93.1323 46.5249 78.1752 53.6558 62.5954 59.1628C44.8538 65.4497 32.4183 69.3099 25.0753 71.4348C25.0753 72.5287 24.9872 73.6604 25.0753 74.7669C25.0753 75.3704 25.0753 76.0243 25.0753 76.5775C25.0753 76.7913 25.0753 77.005 25.0753 77.2188C25.0753 77.4325 25.0753 77.4954 25.0753 77.6337C25.1381 78.4133 25.2136 79.1928 25.3142 79.985C25.3142 80.2742 25.3142 80.576 25.4274 80.8651C25.4274 81.3681 25.5782 81.8711 25.6663 82.374C25.6663 82.5626 25.7291 82.7386 25.7669 82.9273C25.8423 83.3925 25.9429 83.8451 26.0435 84.3104C26.144 84.7882 26.2446 85.2534 26.3704 85.706C26.4961 86.1587 26.5339 86.385 26.6219 86.7245C26.8398 87.5125 27.0787 88.3046 27.3386 89.101L27.4517 89.5033L27.7284 90.3081C27.9044 90.7733 28.0678 91.2511 28.2439 91.7037C28.3445 91.9426 28.4325 92.1941 28.5456 92.4204C28.608 92.6181 28.6836 92.8114 28.7719 92.9988C29.036 93.615 29.3001 94.2562 29.5767 94.822C29.8533 95.3879 30.0796 95.8782 30.3437 96.3812C32.0249 99.6896 34.0795 102.795 36.4672 105.635C47.6956 99.927 76.8792 85.178 90.8739 78.9539C101.247 74.3268 114.299 70.8816 122.786 68.8949C122.642 67.4221 122.424 65.9575 122.132 64.5067C122.105 64.3368 122.067 64.1688 122.019 64.0037C122.019 63.8403 122.019 63.6768 121.919 63.5134C121.818 63.3499 121.78 62.8847 121.705 62.5703C121.629 62.256 121.567 62.0045 121.491 61.7153L121.34 61.1495C121.227 60.722 121.101 60.3196 120.975 59.8921C120.85 59.4646 120.774 59.2131 120.661 58.8736C120.548 58.5341 120.397 58.0689 120.259 57.6162L120.02 57.151ZM31.5634 71.6486C32.1554 71.443 32.8047 71.4796 33.3698 71.7504C33.935 72.0212 34.3704 72.5043 34.5811 73.0946C34.7048 73.3913 34.7666 73.7101 34.7629 74.0316C34.7592 74.353 34.6899 74.6703 34.5593 74.9641C34.4288 75.2578 34.2397 75.5219 34.0036 75.7401C33.7675 75.9583 33.4894 76.126 33.1863 76.233C32.8831 76.3401 32.5613 76.3842 32.2406 76.3626C31.9198 76.341 31.6068 76.2543 31.3208 76.1076C31.0347 75.961 30.7816 75.7575 30.5768 75.5097C30.3721 75.2619 30.22 74.9749 30.1299 74.6663C29.9237 74.0759 29.9585 73.4279 30.2269 72.863C30.4952 72.2981 30.9754 71.8618 31.5634 71.6486ZM40.0507 97.9781C39.4739 98.1818 38.8497 98.2098 38.2569 98.0588C37.6642 97.9078 37.1295 97.5844 36.7205 97.1295C36.3115 96.6746 36.0466 96.1087 35.9592 95.5033C35.8718 94.8978 35.966 94.2801 36.2296 93.7281C36.4933 93.1762 36.9147 92.7148 37.4406 92.4023C37.9665 92.0898 38.5731 91.9403 39.184 91.9726C39.7948 92.0049 40.3824 92.2176 40.8724 92.5838C41.3623 92.95 41.7327 93.4532 41.9367 94.0299C42.0722 94.413 42.1309 94.819 42.1095 95.2247C42.088 95.6305 41.9869 96.0281 41.8117 96.3947C41.6366 96.7614 41.3909 97.0899 41.0887 97.3616C40.7865 97.6333 40.4338 97.8428 40.0507 97.9781ZM90.811 70.6175C90.2191 70.8243 89.5693 70.7874 89.0045 70.5151C88.4398 70.2427 88.0063 69.7572 87.7996 69.1653C87.5928 68.5733 87.6297 67.9235 87.902 67.3588C88.1744 66.794 88.66 66.3606 89.2519 66.1538C89.8438 65.9471 90.4936 65.9839 91.0584 66.2563C91.6231 66.5286 92.0566 67.0142 92.2633 67.6061C92.4701 68.198 92.4332 68.8478 92.1609 69.4126C91.8885 69.9773 91.4029 70.4108 90.811 70.6175ZM97.3871 74.3897C97.0919 74.4945 96.7673 74.4779 96.4844 74.3435C96.2015 74.2091 95.9835 73.9679 95.8783 73.6729C95.7997 73.4527 95.7882 73.2141 95.8453 72.9874C95.9024 72.7606 96.0255 72.5559 96.1989 72.3991C96.3724 72.2423 96.5884 72.1405 96.8198 72.1065C97.0511 72.0725 97.2874 72.108 97.4986 72.2083C97.7098 72.3086 97.8866 72.4693 98.0064 72.6701C98.1262 72.8709 98.1838 73.1027 98.1719 73.3362C98.1599 73.5698 98.079 73.7945 97.9393 73.982C97.7996 74.1695 97.6074 74.3114 97.3871 74.3897Z" fill="white"/>
</g>
<g opacity="0.25">
<path d="M83.1536 97.2363C68.9128 102.171 54.3467 106.112 39.5603 109.031C39.6357 109.119 39.7238 109.194 39.7992 109.269C39.9032 109.384 40.0168 109.489 40.1387 109.584L40.2393 109.684L40.6165 110.036L41.4967 110.829C42.4775 111.709 43.4959 112.526 44.5395 113.343L44.7156 113.469C45.6838 114.198 46.6896 114.877 47.7081 115.519C47.8841 115.644 48.0727 115.758 48.2613 115.871C50.1346 117.013 52.0791 118.033 54.083 118.926C56.1558 119.848 58.2901 120.626 60.4705 121.252L61.4638 121.541H61.5518C62.256 121.717 62.9601 121.894 63.6642 122.032L64.2175 122.145H64.4187L64.8337 122.22L66.3424 122.484C67.2855 122.635 68.2411 122.761 69.1967 122.849C78.8911 118.725 87.5671 115.305 90.2201 115.003C93.2881 114.664 87.8814 118.348 80.8526 122.547C84.0329 122.086 87.1614 121.319 90.1949 120.259C94.4386 118.77 98.4577 116.705 102.14 114.123L103.07 113.457C103.448 113.18 103.825 112.891 104.202 112.589C104.642 112.262 105.07 111.91 105.46 111.545C107.719 109.645 109.798 107.54 111.671 105.258C113.152 103.463 114.509 101.568 115.732 99.5877L116.336 98.544C113.997 99.6505 110.64 101.222 105.799 103.423C91.2385 110.062 65.7767 117.103 65.7515 115.053C65.7264 113.004 79.4947 104.881 98.2044 98.9087C107.006 96.1299 114.161 93.942 119.341 92.408C119.668 91.6159 119.97 90.7986 120.259 89.9939C120.91 88.0953 121.447 86.1597 121.868 84.1973C121.969 83.7321 122.057 83.2543 122.157 82.7639C122.258 82.2736 122.371 81.5066 122.459 80.8527C122.623 79.7839 122.736 78.69 122.811 77.5961V77.4452C110.479 85.6867 97.1538 92.3365 83.1536 97.2363ZM59.6281 112.325C55.3027 113.846 51.4426 114.073 51.0025 112.853C50.5624 111.633 53.731 109.383 58.0564 107.823C62.3817 106.264 66.2545 106.063 66.682 107.295C67.1095 108.528 63.9535 110.866 59.6281 112.388V112.325Z" fill="white"/>
</g>
<g opacity="0.13">
<path d="M95.9907 30.2056C86.312 37.2145 75.6179 42.7015 64.2797 46.4761C49.9833 51.2667 36.5041 54.7119 28.0671 56.6985C28.9052 54.478 29.9054 52.322 31.0597 50.2482C39.735 49.3994 48.3211 47.805 56.7228 45.4827C73.0687 40.4532 88.1572 30.2559 84.5863 29.3757C81.0153 28.4956 69.8121 35.4363 54.2583 40.0383C47.8314 41.9048 41.3088 43.4242 34.7187 44.59C36.4514 42.2531 38.3914 40.0774 40.5152 38.0894C40.5152 38.0894 40.5152 38.0894 40.5906 38.0894L40.7164 37.9762C49.0579 36.2558 57.2391 33.833 65.1724 30.7337C71.1072 28.4704 75.6715 26.6975 79.1796 25.3018C79.7202 25.3018 80.261 25.415 80.7891 25.4904C81.6692 25.6287 82.5493 25.767 83.4295 25.9557H83.505C85.0586 26.2582 86.5948 26.6444 88.1069 27.1124L88.7985 27.3262L89.1883 27.4645L90.6092 27.9549L91.3636 28.2441L91.9042 28.4578C93.0862 28.9231 94.2556 29.4386 95.3998 29.9918L95.8398 30.2056H95.9907Z" fill="white"/>
</g>
<g opacity="0.4">
<path d="M119.995 57.0757C119.882 56.7614 119.757 56.4344 119.631 56.1201C119.638 56.07 119.638 56.0192 119.631 55.9692V55.8812C119.505 55.5417 119.367 55.2148 119.228 54.8879C119.09 54.5609 118.964 54.2592 118.826 53.9574L118.197 52.5994C117.657 51.4678 117.078 50.3739 116.45 49.3051C116.374 49.1668 116.274 49.0159 116.198 48.865L115.947 48.4501C115.72 48.0729 115.494 47.6831 115.255 47.3184C113.904 45.216 112.395 43.2193 110.741 41.3459C110.351 40.9058 109.949 40.4783 109.547 40.0885C109.144 39.6987 108.377 38.8312 107.774 38.3156C107.17 37.8001 106.806 37.4103 106.303 36.9702C105.8 36.5302 105.133 35.9769 104.517 35.4991C104.291 35.2979 104.052 35.1219 103.813 34.9333C103.637 34.795 103.461 34.6567 103.272 34.5309L103.008 34.3423L101.927 33.5627L101.55 33.2987L101.273 33.1227L100.758 32.7832C100.041 32.3179 99.3116 31.8653 98.5697 31.4378L98.4692 31.3749C97.8405 31.0228 97.2118 30.6834 96.5831 30.3564L96.0047 30.0547L95.464 29.8158C94.3198 29.2625 93.163 28.747 91.9811 28.2818L91.4404 28.068L90.6734 27.7788C90.2082 27.6028 89.7304 27.4519 89.2526 27.2884L88.8628 27.1501L88.1587 26.9238C86.2726 26.3519 84.3537 25.8942 82.4125 25.5533L83.519 25.8424H83.5944L84.7638 26.1694L85.4553 26.3831L85.8451 26.5089L87.2659 27.0118L88.0329 27.2884L88.5611 27.5022C89.7556 27.9674 90.9123 28.4829 92.0565 29.0488C92.2039 29.1099 92.3468 29.1813 92.4841 29.2625C93.3265 29.6774 94.1438 30.105 94.9988 30.5199H95.0994L95.376 30.6834C96.1933 31.1612 97.0106 31.6767 97.8027 32.1922L98.0794 32.3808C98.2051 32.4688 98.3309 32.5443 98.4566 32.6449L99.211 33.173L99.802 33.6005L100.343 34.0028L101.424 34.8578L102.795 36.0021C103.398 36.5302 103.976 37.0582 104.555 37.6115C105.133 38.1647 105.561 38.6174 106.051 39.1329C106.542 39.6485 106.868 40.0005 107.309 40.3903C107.51 40.6166 107.711 40.843 107.9 41.0819C109.618 43.0864 111.166 45.2315 112.527 47.4945C112.602 47.6328 112.69 47.7711 112.778 47.9094L112.979 48.2741C113.394 48.9656 113.784 49.6823 114.149 50.4116C114.375 50.814 114.576 51.2289 114.765 51.669C115.129 52.4234 115.481 53.1778 115.808 53.9574C115.947 54.2843 116.072 54.5987 116.198 54.9256C116.349 55.3279 116.5 55.7303 116.638 56.183C116.712 56.3463 116.775 56.5143 116.827 56.6859L116.978 57.1134L117.242 57.893C117.556 58.8612 117.833 59.8293 118.072 60.785C118.21 61.3382 118.348 61.8914 118.474 62.4447C118.48 62.5578 118.48 62.6711 118.474 62.7842C118.675 63.7146 118.851 64.6451 119.002 65.5756L119.115 66.4054C119.732 70.831 119.732 75.3206 119.115 79.7462C119.121 79.7752 119.121 79.8052 119.115 79.8342C119.027 80.4755 118.927 81.0916 118.814 81.7454C118.49 83.4774 118.07 85.1901 117.556 86.8755C117.057 88.5831 116.466 90.2621 115.783 91.905C115.368 92.8858 114.928 93.8666 114.45 94.8347C113.454 96.843 112.32 98.7798 111.055 100.631C109.136 103.451 106.928 106.064 104.467 108.427C103.7 109.169 102.908 109.873 102.09 110.565C101.663 110.917 101.235 111.269 100.833 111.608C100.167 112.136 99.4751 112.652 98.771 113.142C95.0834 115.705 91.0705 117.764 86.8385 119.266C81.899 121.01 76.7109 121.948 71.4733 122.044C70.3794 122.044 69.2855 122.044 68.1915 122.044C67.3114 122.044 66.4312 121.944 65.5636 121.856C64.696 121.768 63.8284 121.642 62.9734 121.504L61.8418 121.315C62.4579 121.466 63.0991 121.604 63.6775 121.73L64.4571 121.893H64.608H64.872C65.3624 121.994 65.8654 122.082 66.3683 122.158C68.0966 122.432 69.8386 122.613 71.5865 122.698C72.6804 122.698 73.7743 122.774 74.8682 122.698C84.6087 122.575 94.0944 119.569 102.128 114.06C102.354 113.909 102.581 113.746 102.807 113.57C103.272 113.243 103.738 112.891 104.178 112.539C104.618 112.187 105.045 111.847 105.435 111.482C107.645 109.635 109.682 107.589 111.521 105.372C113.041 103.565 114.419 101.644 115.645 99.6253C116.982 97.4697 118.146 95.2119 119.128 92.8732C119.505 91.9428 119.87 90.9997 120.209 90.0567C120.863 88.1621 121.404 86.2308 121.831 84.2728C121.944 83.7447 122.058 83.2291 122.146 82.701C122.234 82.1729 122.359 81.4437 122.46 80.8024C122.598 79.7588 122.724 78.7152 122.799 77.659C123.14 73.264 122.878 68.8432 122.02 64.5194C122.02 64.3559 121.957 64.1799 121.919 64.0038C121.882 63.8278 121.831 63.6141 121.794 63.4129L121.605 62.5579L121.379 61.7154C121.379 61.5142 121.291 61.3256 121.24 61.137C121.127 60.7221 121.001 60.3072 120.876 59.8796C120.75 59.4521 120.674 59.1881 120.561 58.8486C120.448 58.5091 120.297 58.0439 120.159 57.5912L119.995 57.0757Z" fill="white"/>
</g>
<path d="M53.3166 30.5451C53.0508 30.7224 52.7736 30.882 52.4868 31.0229C51.9335 31.3121 51.1414 31.7647 50.1229 32.3557C47.2479 34.073 44.552 36.0738 42.0756 38.3282C33.6932 45.9578 28.2739 56.3021 26.7734 67.5371L26.6225 67.2228L26.7986 67.3359V67.5622C26.6728 68.7065 26.5471 69.8758 26.4088 71.0703C26.2705 72.2648 26.4087 73.4971 26.3082 74.7293C26.3633 78.3963 26.8786 82.0419 27.8421 85.5805L28.1691 86.8378L28.5966 88.0952C28.8732 88.9251 29.1624 89.7424 29.439 90.61L30.4575 92.9361C30.6209 93.3133 30.7844 93.6906 30.9605 94.0678L31.5388 95.1617C34.2098 100.307 37.7392 104.959 41.975 108.917C44.8506 111.571 48.004 113.906 51.3803 115.883C52.6377 116.575 53.5555 117.027 54.1968 117.38C54.5323 117.541 54.8559 117.725 55.165 117.933C54.809 117.822 54.4639 117.679 54.1339 117.505C53.4801 117.178 52.4741 116.763 51.2545 116.097C42.6096 111.363 35.561 104.175 30.9982 95.4383C30.8095 95.0737 30.6084 94.709 30.4072 94.3444L29.8917 93.1876L28.8606 90.8363C28.5714 90.019 28.2822 89.2017 27.993 88.3215L27.5529 87.0642L27.2134 85.8068C26.2345 82.2193 25.7107 78.523 25.6543 74.8047C25.6543 73.5474 25.6543 72.29 25.7549 71.0326C25.8555 69.7752 26.0315 68.631 26.1573 67.4617L26.3082 67.8012L26.1321 67.688V67.4868C27.6511 56.1073 33.201 45.6499 41.7739 38.0139C44.2953 35.7788 47.0478 33.8188 49.9846 32.1671C51.0282 31.6013 51.8455 31.1738 52.4238 30.9097C52.7075 30.7624 53.0017 30.6363 53.304 30.5325L53.3166 30.5451Z" fill="white"/>
</g>
<defs>
<filter id="filter0_d_3_17763" x="0" y="0" width="138" height="138" filterUnits="userSpaceOnUse" color-interpolation-filters="sRGB">
<feFlood flood-opacity="0" result="BackgroundImageFix"/>
<feColorMatrix in="SourceAlpha" type="matrix" values="0 0 0 0 0 0 0 0 0 0 0 0 0 0 0 0 0 0 127 0" result="hardAlpha"/>
<feOffset dx="-5" dy="-5"/>
<feGaussianBlur stdDeviation="10"/>
<feComposite in2="hardAlpha" operator="out"/>
<feColorMatrix type="matrix" values="0 0 0 0 0.9375 0 0 0 0 0.548454 0 0 0 0 0.425781 0 0 0 0.3 0"/>
<feBlend mode="normal" in2="BackgroundImageFix" result="effect1_dropShadow_3_17763"/>
<feBlend mode="normal" in="SourceGraphic" in2="effect1_dropShadow_3_17763" result="shape"/>
</filter>
</defs>
</svg>
