
<svg width="2829" height="2829" viewBox="0 0 2829 2829" fill="none" xmlns="http://www.w3.org/2000/svg">
<g filter="url(#filter0_d_3_6019)">
<path d="M528.364 950.241C436.602 1125.44 398.852 1323.91 419.885 1520.57C440.919 1717.22 519.793 1903.22 646.533 2055.05C773.273 2206.87 942.187 2317.71 1131.92 2373.54C1321.65 2429.37 1523.67 2427.69 1712.45 2368.71C1901.22 2309.72 2068.27 2196.09 2192.46 2042.17C2316.65 1888.25 2392.42 1700.97 2410.17 1503.99C2427.93 1307.02 2386.88 1109.2 2292.21 935.552C2197.55 761.907 2053.51 620.231 1878.33 528.44C1762 467.485 1634.8 430.043 1503.99 418.252C1373.19 406.461 1241.34 420.552 1115.98 459.721C990.621 498.889 874.205 562.368 773.381 646.532C672.557 730.697 589.3 833.897 528.364 950.241Z" fill="#E6E6E6"/>
<path d="M865.599 1667.61C859.809 1678.97 857.918 1691.91 860.218 1704.45C862.518 1716.99 868.881 1728.42 878.325 1736.99C899.671 1752.59 937.849 1748.48 945.649 1773.93C951.806 1793.64 931.896 1811.08 925.944 1830.99C924.584 1839.48 925.603 1848.17 928.887 1856.1C932.171 1864.04 937.592 1870.91 944.547 1875.95C951.502 1880.99 959.718 1884.01 968.283 1884.66C976.848 1885.31 985.426 1883.57 993.063 1879.64C1006.2 1870.61 1013.59 1855.01 1026.52 1846.18C1035.26 1840.83 1045.68 1838.9 1055.76 1840.76C1065.84 1842.63 1074.88 1848.16 1081.12 1856.29C1087.37 1864.43 1090.39 1874.58 1089.59 1884.8C1088.79 1895.03 1084.24 1904.59 1076.81 1911.66C1061 1927.46 1035.14 1925.82 1013.79 1930.75C1001.02 1933.27 989.056 1938.87 978.934 1947.06C968.813 1955.25 960.84 1965.79 955.706 1977.75C951.175 1989.94 951.381 2003.39 956.284 2015.44C961.186 2027.48 970.428 2037.25 982.184 2042.82C997.202 2046.19 1012.57 2047.78 1027.96 2047.54C1044.41 2049.57 1059.81 2056.73 1071.97 2068C1084.12 2079.28 1092.42 2094.09 1095.69 2110.35C1097.95 2122.46 1097.33 2134.98 1100 2147.09C1105.28 2164.77 1117 2179.84 1132.85 2189.3C1148.7 2198.76 1167.52 2201.94 1185.59 2198.2C1203.44 2193.36 1219.38 2183.17 1231.27 2169.01C1243.16 2154.85 1250.42 2137.38 1252.1 2118.97C1253.74 2102.96 1251.48 2086.74 1253.33 2070.94C1255.23 2055.5 1261.69 2040.98 1271.89 2029.24C1282.1 2017.51 1295.57 2009.08 1310.59 2005.05C1326.08 2002.16 1342.07 2005.38 1355.24 2014.03C1368.4 2022.68 1377.7 2036.08 1381.2 2051.44C1385.31 2078.53 1368.68 2105.01 1362.11 2131.28C1355.54 2157.56 1375.25 2195.32 1401.52 2187.11C1423.07 2180.34 1429.64 2147.09 1452.01 2144.01C1474.39 2140.93 1485.47 2164.74 1482.6 2184.44C1477.4 2203.46 1469.67 2221.68 1459.61 2238.63C1452.22 2256.69 1450.78 2281.12 1466.79 2293.02C1482.8 2304.93 1511.13 2293.85 1528.57 2278.45C1546.02 2263.06 1564.7 2244.38 1587.48 2247.05C1610.27 2249.72 1625.46 2272.7 1647.62 2277.22C1702.63 2288.71 1724.8 2190.19 1781.45 2188.55C1816.96 2187.93 1840.36 2227.75 1874.84 2235.96C1897.63 2241.51 1920.61 2231.24 1945.04 2232.27C1957.12 2232.51 1969.13 2234.3 1980.75 2237.61C2114.27 2145.78 2223.28 2022.67 2298.28 1879.02C2317.9 1841.36 2335.11 1802.49 2349.8 1762.64C2357.67 1721.28 2357.04 1678.75 2347.96 1637.64C2333.77 1598.61 2322.11 1558.71 2313.06 1518.18C2309.57 1487.19 2315.12 1455.38 2309.37 1424.59C2307.96 1408.87 2301.37 1394.08 2290.63 1382.52C2279.89 1370.96 2265.62 1363.31 2250.05 1360.75C2238.29 1361.28 2226.96 1365.37 2217.58 1372.48C2208.19 1379.59 2201.19 1389.39 2197.5 1400.57C2191.01 1423.39 2193.43 1447.82 2204.28 1468.92C2216.25 1486.12 2223.53 1506.14 2225.42 1527.01C2223.95 1537.1 2219.26 1546.45 2212.05 1553.67C2204.84 1560.88 2195.49 1565.57 2185.39 1567.03C2175.29 1568.46 2164.99 1567.45 2155.35 1564.1C2145.71 1560.74 2137.01 1555.13 2129.98 1547.74C2104.93 1522.7 2138.39 1506.48 2155.02 1490.68C2166.1 1479.6 2174.52 1462.15 2165.28 1449.63C2156.04 1437.11 2137.57 1439.57 2122.18 1438.96C2110.12 1438.51 2098.29 1435.5 2087.49 1430.13C2082.73 1428.12 2078.52 1425.03 2075.17 1421.1C2065.32 1407.55 2076.4 1387.85 2090.36 1378.4C2105.63 1371.29 2119.64 1361.72 2131.82 1350.08C2137.08 1341.71 2139.78 1331.99 2139.6 1322.11C2139.42 1312.23 2136.36 1302.62 2130.8 1294.45C2119.47 1278.33 2104.3 1265.28 2086.67 1256.48C2076.53 1253.01 2067.32 1247.27 2059.74 1239.69C2052.16 1232.11 2046.42 1222.9 2042.95 1212.76C2035.35 1192.44 2032.48 1171.1 2022.42 1151.19C2013.54 1132.99 1999.83 1117.58 1982.8 1106.64C1965.76 1095.69 1946.05 1089.64 1925.8 1089.13C1905.56 1088.62 1885.57 1093.68 1868 1103.75C1850.44 1113.83 1835.98 1128.53 1826.2 1146.26C1821.58 1159.61 1812.81 1171.12 1801.16 1179.1C1791.6 1181.72 1781.71 1182.9 1771.8 1182.59C1762.72 1184.82 1754.31 1189.21 1747.28 1195.39C1740.26 1201.57 1734.84 1209.35 1731.47 1218.08C1728.1 1226.81 1726.9 1236.22 1727.95 1245.52C1729.01 1254.81 1732.29 1263.71 1737.53 1271.47C1761.75 1298.97 1804.44 1300.2 1834.61 1316.83C1885.52 1345.15 1856.57 1407.35 1801.77 1388.26C1785.15 1382.3 1759.28 1362.19 1734.86 1352.13C1710.43 1342.07 1691.14 1342.07 1678.21 1367.73C1665.28 1393.39 1687.03 1435.67 1660.55 1446.55C1653.74 1448.49 1646.45 1447.87 1640.06 1444.81C1633.67 1441.74 1628.62 1436.45 1625.87 1429.92C1620.32 1416.92 1615.93 1403.46 1612.73 1389.69C1609.64 1379.63 1604.14 1370.48 1596.69 1363.04C1589.25 1355.6 1580.1 1350.09 1570.04 1347C1559.87 1344.39 1549.08 1345.77 1539.89 1350.84C1530.7 1355.91 1523.79 1364.3 1520.57 1374.3C1516.05 1395.24 1530.42 1421.51 1515.03 1436.08C1499.63 1450.65 1479.31 1438.95 1469.26 1423.56C1459.2 1408.17 1456.74 1389.69 1446.68 1374.71C1423.89 1339.61 1371.97 1336.53 1333.58 1353.57C1295.2 1370.6 1265.64 1418.22 1291.09 1449.83C1306.69 1469.13 1334.81 1470.97 1358.01 1480.21C1381.2 1489.45 1401.32 1519 1383.66 1536.66C1371.97 1548.36 1351.64 1545.69 1337.07 1551.23C1326.86 1556.53 1318.85 1565.26 1314.46 1575.89C1310.06 1586.52 1309.57 1598.36 1313.06 1609.32C1316.83 1620.16 1322.7 1630.14 1330.35 1638.7C1337.99 1647.26 1347.25 1654.23 1357.6 1659.19C1407.27 1686.7 1478.9 1679.93 1508.67 1631.28C1524.68 1606.24 1531.24 1567.65 1559.98 1555.75C1570.56 1552.52 1581.74 1551.8 1592.65 1553.66C1603.55 1555.51 1613.87 1559.88 1622.79 1566.42C1640.31 1575.52 1654.9 1589.39 1664.87 1606.44C1669.69 1615.14 1671.87 1625.05 1671.14 1634.97C1670.41 1644.89 1666.8 1654.38 1660.76 1662.27C1645.58 1674.59 1627.84 1683.35 1608.83 1687.93C1590.97 1695.52 1573.73 1715.23 1582.15 1732.68C1587.69 1744.38 1602.06 1749.3 1609.24 1759.77C1622.17 1780.91 1595.9 1808.01 1571.27 1806.36C1546.82 1801.72 1524.52 1789.34 1507.64 1771.06C1499.09 1762.07 1488.66 1755.09 1477.09 1750.61C1465.52 1746.14 1453.1 1744.29 1440.73 1745.2C1406.45 1751.97 1393.31 1797.95 1400.91 1833.05C1405.22 1852.14 1412.61 1873.48 1402.14 1890.11C1397.82 1896.02 1391.94 1900.63 1385.17 1903.42C1378.4 1906.2 1370.99 1907.07 1363.75 1905.91C1355.67 1904.67 1347.93 1901.74 1341.06 1897.3C1334.19 1892.86 1328.33 1887.02 1323.87 1880.16C1319.42 1873.3 1316.46 1865.57 1315.2 1857.49C1313.93 1849.4 1314.39 1841.14 1316.55 1833.25C1321.87 1821 1327.9 1809.08 1334.61 1797.54C1341 1783.98 1343.23 1768.84 1341.04 1754.01C1338.85 1739.18 1332.33 1725.33 1322.29 1714.2C1311.67 1704.02 1297.65 1698.13 1282.95 1697.68C1268.24 1697.22 1253.88 1702.23 1242.65 1711.74C1230.54 1723.85 1223.98 1741.09 1210.63 1751.56C1203.73 1755.72 1195.93 1758.19 1187.89 1758.77C1179.84 1759.34 1171.77 1758 1164.35 1754.86C1156.92 1751.71 1150.34 1746.86 1145.15 1740.68C1139.96 1734.51 1136.3 1727.19 1134.48 1719.33C1133.11 1703.09 1138.03 1686.93 1148.23 1674.21C1158.43 1661.49 1173.13 1653.18 1189.29 1650.98C1215.77 1647.91 1249.84 1657.35 1264 1634.56C1268.55 1626.91 1270.01 1617.81 1268.11 1609.11C1265.79 1600.21 1261.33 1592.01 1255.11 1585.23C1248.9 1578.45 1241.12 1573.3 1232.45 1570.22C1223.79 1567.15 1214.5 1566.24 1205.4 1567.58C1196.3 1568.92 1187.67 1572.47 1180.26 1577.91C1173.9 1585.31 1166.5 1591.74 1158.29 1597C1127.51 1610.55 1090.97 1561.29 1063.26 1580.79C1049.71 1590.23 1048.69 1611.37 1034.93 1620.61C1021.18 1629.84 997.989 1619.79 979.721 1613.42C957.364 1607.68 933.704 1609.96 912.854 1619.86C892.003 1629.76 875.283 1646.66 865.599 1667.61ZM638.175 783.368C650.494 787.297 663.245 789.709 676.148 790.552C699.752 793.22 727.872 801.225 732.798 824.213C736.082 838.171 728.898 852.744 730.13 867.933C731.385 879.752 736.654 890.783 745.058 899.188C753.462 907.592 764.493 912.861 776.312 914.116C788.097 914.974 799.93 913.334 811.037 909.302C822.144 905.269 832.274 898.936 840.763 890.717C854.395 874.215 871.132 860.547 890.024 850.486C900.315 846.793 911.552 846.688 921.911 850.187C932.27 853.686 941.141 860.584 947.085 869.761C953.029 878.938 955.695 889.855 954.652 900.739C953.609 911.623 948.917 921.834 941.338 929.715C920.812 950.241 885.509 950.241 860.467 966.251C848.419 974.031 839.467 985.775 835.157 999.454C830.848 1013.13 831.451 1027.89 836.863 1041.17C840.034 1047.48 844.457 1053.08 849.864 1057.62C855.27 1062.16 861.546 1065.55 868.308 1067.59C875.069 1069.63 882.175 1070.26 889.19 1069.46C896.206 1068.66 902.985 1066.44 909.113 1062.93C929.638 1048.97 942.57 1017.56 967.2 1020.44C997.783 1023.93 994.5 1069.08 1008.87 1096.18C1014.72 1107.54 1024.65 1116.29 1036.66 1120.66C1048.68 1125.03 1061.9 1124.71 1073.69 1119.76C1085.48 1114.81 1094.97 1105.6 1100.26 1093.96C1105.56 1082.32 1106.27 1069.11 1102.26 1056.97C1097.95 1043.63 1087.48 1030.7 1089.12 1017.15C1090.76 988.829 1134.07 983.287 1155.63 1001.55C1174.17 1023.01 1189.59 1046.99 1201.4 1072.78C1214.27 1091.85 1231.93 1107.2 1252.61 1117.28C1273.29 1127.37 1296.26 1131.84 1319.21 1130.25C1335.44 1129.21 1350.97 1123.27 1363.75 1113.21C1395.57 1086.33 1392.29 1029.26 1428 1007.92C1438.3 1002.34 1450.29 1000.71 1461.71 1003.33C1473.13 1005.95 1483.2 1012.64 1490.04 1022.15C1496.89 1031.66 1500.03 1043.34 1498.89 1055C1497.74 1066.66 1492.39 1077.51 1483.83 1085.5C1465.77 1101.51 1438.47 1102.13 1418.35 1115.27C1403.1 1128.03 1393.18 1146.06 1390.56 1165.78C1387.94 1185.5 1392.8 1205.48 1404.19 1221.79C1428.38 1254.2 1462.57 1277.71 1501.48 1288.71C1513.31 1293.85 1526.47 1295.08 1539.04 1292.2C1574.76 1280.29 1563.06 1224.67 1584.61 1194.08C1609.65 1158.78 1671.02 1166.79 1694.83 1130.66C1707.56 1110.96 1705.1 1083.04 1721.52 1066.21C1752.71 1035.01 1815.32 1070.11 1846.11 1038.91C1852.47 1031.6 1856.51 1022.57 1857.72 1012.95C1858.93 1003.34 1857.24 993.582 1852.88 984.929C1843.52 967.513 1829.24 953.236 1811.83 943.878C1789.66 930.331 1761.54 914.116 1764.21 888.459C1766.88 862.802 1804.23 851.307 1832.56 854.592C1858.19 856.225 1882.85 864.968 1903.78 879.838C1914.05 887.511 1921.97 897.898 1926.64 909.829C1931.32 921.761 1932.58 934.762 1930.26 947.367C1928.21 955.988 1923.9 963.993 1922.67 972.614C1922.87 985.736 1927.26 998.451 1935.2 1008.9C1943.14 1019.35 1954.21 1026.99 1966.8 1030.7C1992.07 1037.45 2016.67 1046.52 2040.28 1057.79C2101.85 1096.79 2096.11 1199.01 2158.71 1236.57C2161.67 1238.79 2165.1 1240.28 2168.74 1240.92C2172.37 1241.56 2176.11 1241.34 2179.65 1240.27C2182.79 1238.41 2185.51 1235.92 2187.63 1232.95C2189.75 1229.98 2191.23 1226.6 2191.96 1223.03C2202.35 1189.94 2204.28 1154.77 2197.57 1120.74C2190.87 1086.72 2175.74 1054.91 2153.58 1028.24C2124.64 994.371 2084.82 970.151 2060.6 932.794C2045.92 905.344 2033.23 876.877 2022.63 847.613C2017.12 832.772 2008.47 819.294 1997.28 808.1C1986.08 796.906 1972.61 788.26 1957.77 782.752C1921.64 773.721 1886.75 793.836 1852.26 811.488C1817.78 829.14 1774.88 838.787 1747.17 813.951C1751.46 794.056 1749.15 773.307 1740.6 754.837C1730.34 737.596 1702.43 729.796 1690.11 745.395C1681.7 756.274 1683.95 771.668 1680.05 784.599C1671.43 813.745 1636.33 822.982 1605.14 823.803C1575.07 819.736 1544.46 824.292 1516.88 836.94C1506.42 845.746 1496.74 855.428 1487.93 865.88C1477.49 876.716 1464.43 884.661 1450 888.941C1435.58 893.222 1420.29 893.692 1405.63 890.306C1391.36 886.053 1379.27 876.482 1371.86 863.57C1364.45 850.659 1362.28 835.394 1365.81 820.929C1374.74 802.358 1389.72 787.376 1408.3 778.442C1426.88 769.769 1442.41 755.672 1452.84 738.006C1461.25 719.328 1452.43 692.029 1432.11 690.181C1411.78 688.334 1394.34 718.917 1371.14 724.87C1347.95 730.822 1325.99 708.039 1309.98 688.745C1293.97 669.451 1267.08 649.541 1246.35 663.293C1225.62 677.045 1230.13 704.139 1224.18 726.512C1220.81 739.325 1213.8 750.888 1203.99 759.798C1194.19 768.707 1182.01 774.583 1168.93 776.711C1155.86 778.84 1142.44 777.131 1130.32 771.792C1118.19 766.452 1107.88 757.711 1100.62 746.627C1098.15 708.039 1169.58 704.755 1174.51 666.988C1177.79 640.715 1144.95 624.294 1118.47 626.142C1104.72 627.168 1090.15 630.657 1078.86 624.705C1059.77 614.648 1059.98 584.885 1073.93 568.054C1089.8 552.892 1109.8 542.753 1131.41 538.908C1150.49 533.366 1175.12 529.261 1188.06 544.655C1197.29 553.892 1196.27 569.286 1200.37 582.012C1205.37 594.974 1215 605.617 1227.41 611.875C1239.81 618.133 1254.09 619.56 1267.49 615.879C1280.51 609.379 1293.95 603.756 1307.72 599.048C1342.41 592.685 1369.91 631.683 1404.4 629.631C1410.29 629 1416 627.203 1421.19 624.346C1426.38 621.488 1430.96 617.626 1434.64 612.985C1438.33 608.343 1441.06 603.015 1442.66 597.31C1444.27 591.605 1444.73 585.637 1444.01 579.754C1441.75 566.002 1432.93 552.66 1437.03 539.524C1444.21 515.919 1479.52 513.046 1490.4 489.441C1494.68 477.736 1496.41 465.246 1495.45 452.817C1494.5 440.388 1490.88 428.309 1484.86 417.396C1284.78 403.361 1085.1 449.619 911.576 550.197C908.539 566.857 910.1 584.03 916.091 599.869C924.006 614.288 931.065 629.161 937.233 644.409C939.842 652.173 939.506 660.624 936.289 668.155C933.072 675.686 927.199 681.773 919.786 685.255C910.631 686.732 901.249 684.913 893.308 680.124C865.34 666.012 842.036 644.134 826.189 617.111L821.674 608.9C753.657 658.793 692.271 717.145 638.996 782.547L638.175 783.368Z" fill="#D3CFCF"/>
</g>
<defs>
<filter id="filter0_d_3_6019" x="359.213" y="359.213" width="2100" height="2100" filterUnits="userSpaceOnUse" color-interpolation-filters="sRGB">
<feFlood flood-opacity="0" result="BackgroundImageFix"/>
<feColorMatrix in="SourceAlpha" type="matrix" values="0 0 0 0 0 0 0 0 0 0 0 0 0 0 0 0 0 0 127 0" result="hardAlpha"/>
<feOffset dx="-5" dy="-5"/>
<feGaussianBlur stdDeviation="25"/>
<feComposite in2="hardAlpha" operator="out"/>
<feColorMatrix type="matrix" values="0 0 0 0 0.975 0 0 0 0 0.975 0 0 0 0 0.975 0 0 0 0.4 0"/>
<feBlend mode="normal" in2="BackgroundImageFix" result="effect1_dropShadow_3_6019"/>
<feBlend mode="normal" in="SourceGraphic" in2="effect1_dropShadow_3_6019" result="shape"/>
</filter>
</defs>
</svg>
