
<svg width="308" height="308" viewBox="0 0 308 308" fill="none" xmlns="http://www.w3.org/2000/svg">
<path opacity="0.3" d="M133.503 32.8165L147.477 22.0013C152.58 18.0613 158.4 15.3284 164.555 13.9822C170.71 12.636 177.06 12.7071 183.188 14.1908C189.315 15.6746 195.082 18.5373 200.107 22.5906C205.132 26.644 209.303 31.7962 212.344 37.7081L220.687 53.8861C225.32 62.9134 232.551 70.0788 241.294 74.305L256.979 81.934C262.704 84.7084 267.817 88.7562 271.982 93.8107C276.147 98.8652 279.27 104.812 281.144 111.258C283.018 117.705 283.601 124.506 282.855 131.213C282.108 137.919 280.05 144.38 276.815 150.169L267.95 166.055C263.005 174.89 260.854 185.211 261.818 195.472L263.528 213.894C264.157 220.614 263.455 227.401 261.468 233.809C259.482 240.216 256.256 246.098 252.004 251.067C247.751 256.036 242.569 259.979 236.797 262.638C231.025 265.296 224.795 266.608 218.518 266.489L201.31 266.152C191.725 265.969 182.34 269.116 174.55 275.128L160.597 285.943C155.495 289.886 149.675 292.622 143.519 293.97C137.364 295.319 131.012 295.248 124.884 293.764C118.755 292.28 112.988 289.416 107.963 285.361C102.938 281.306 98.7688 276.151 95.7298 270.236L87.3868 254.036C82.7423 245.019 75.5143 237.857 66.7796 233.617L51.0739 226.01C45.3504 223.231 40.2389 219.18 36.0758 214.122C31.9128 209.065 28.7927 203.116 26.9208 196.668C25.0489 190.219 24.4677 183.418 25.2155 176.71C25.9633 170.003 28.0231 163.542 31.2593 157.753L40.1237 141.889C45.0461 133.044 47.1958 122.732 46.2558 112.472L44.5247 94.0506C43.9128 87.3438 44.625 80.5736 46.6146 74.1835C48.6042 67.7934 51.8264 61.9276 56.07 56.9704C60.3136 52.0133 65.4829 48.0766 71.2393 45.4183C76.9956 42.76 83.209 41.4401 89.4726 41.545L106.68 41.8592C116.295 42.0508 125.709 38.8773 133.503 32.8165Z" fill="#C53F3F"/>
<path opacity="0.1" d="M193.176 30.3258C201.39 29.0334 209.766 29.6258 217.752 32.0638C225.739 34.5018 233.155 38.7303 239.514 44.4714C245.873 50.2126 251.031 57.3364 254.649 65.3748C258.266 73.4131 260.262 82.184 260.504 91.1111C260.856 104.744 265.297 117.889 273.164 128.583C278.317 135.594 282.031 143.699 284.063 152.365C286.094 161.031 286.397 170.061 284.951 178.862C283.505 187.663 280.342 196.035 275.672 203.426C271.002 210.818 264.93 217.062 257.855 221.747C247.055 228.895 238.693 239.607 234.015 252.286C230.949 260.591 226.283 268.104 220.324 274.329C214.365 280.554 207.247 285.351 199.44 288.403C191.633 291.456 183.314 292.695 175.03 292.039C166.746 291.383 158.685 288.846 151.378 284.597C140.215 278.115 127.406 275.684 114.856 277.663C106.639 278.956 98.2614 278.363 90.2733 275.922C82.2852 273.481 74.868 269.248 68.5099 263.502C62.1517 257.755 56.9966 250.626 53.3839 242.582C49.7711 234.538 47.7825 225.763 47.549 216.833C47.1941 203.194 42.7535 190.043 34.8885 179.339C29.7325 172.329 26.0154 164.224 23.9821 155.558C21.9487 146.891 21.6453 137.859 23.0917 129.057C24.5381 120.255 27.7015 111.883 32.3737 104.491C37.0458 97.1 43.1206 90.8574 50.1979 86.1747C60.9917 79.0196 69.3523 68.3098 74.038 55.6362C77.1035 47.3308 81.7695 39.8182 87.7288 33.5928C93.6881 27.3675 100.805 22.5707 108.612 19.5182C116.419 16.4657 124.739 15.2267 133.023 15.8828C141.307 16.539 149.368 19.0754 156.675 23.325C167.82 29.8385 180.626 32.2946 193.176 30.3258Z" fill="#C53F3F"/>
<path opacity="0.1" d="M173.382 4.0954C182.463 0.684136 192.113 -0.6189 201.696 0.272099C211.279 1.1631 220.578 4.22793 228.98 9.26475C237.382 14.3016 244.698 21.1961 250.444 29.4943C256.19 37.7926 260.237 47.3063 262.319 57.4088C265.501 72.8312 273.226 86.7366 284.344 97.0573C291.633 103.811 297.508 112.149 301.584 121.523C305.66 130.896 307.844 141.093 307.992 151.44C308.14 161.787 306.248 172.051 302.442 181.555C298.635 191.059 293.001 199.587 285.908 206.579C275.087 217.268 267.77 231.436 265.051 246.968C263.254 257.133 259.477 266.774 253.967 275.257C248.457 283.739 241.34 290.869 233.085 296.179C224.829 301.489 215.621 304.858 206.068 306.064C196.515 307.269 186.832 306.285 177.658 303.176C163.655 298.42 148.597 298.664 134.733 303.871C125.642 307.301 115.978 308.617 106.379 307.733C96.7797 306.848 87.4642 303.784 79.0473 298.741C70.6303 293.698 63.3034 286.792 57.5502 278.479C51.7971 270.165 47.7485 260.634 45.6718 250.513C42.5046 235.09 34.7767 221.187 23.6463 210.887C16.3587 204.129 10.4843 195.788 6.40994 186.412C2.33557 177.035 0.153641 166.837 0.007825 156.488C-0.137991 146.139 1.75561 135.874 5.56395 126.369C9.37229 116.864 15.009 108.335 22.1029 101.343C32.9217 90.6517 40.238 76.4843 42.9604 60.9541C44.757 50.7883 48.5345 41.1472 54.0442 32.6652C59.5539 24.1831 66.6708 17.0525 74.9267 11.7427C83.1826 6.43278 92.3902 3.06403 101.943 1.85811C111.497 0.652195 121.179 1.63647 130.353 4.74613C144.384 9.54158 159.482 9.31324 173.382 4.0954Z" fill="#C53F3F"/>
<path d="M154.026 274.701C216.012 274.701 266.261 220.644 266.261 153.961C266.261 87.2777 216.012 33.2203 154.026 33.2203C92.0412 33.2203 41.7923 87.2777 41.7923 153.961C41.7923 220.644 92.0412 274.701 154.026 274.701Z" fill="#C53F3F"/>
<path opacity="0.3" d="M154.026 274.701C216.012 274.701 266.261 220.644 266.261 153.961C266.261 87.2777 216.012 33.2203 154.026 33.2203C92.0412 33.2203 41.7923 87.2777 41.7923 153.961C41.7923 220.644 92.0412 274.701 154.026 274.701Z" fill="#CE5C5C"/>
<path opacity="0.4" d="M156.926 251.209C211.815 251.209 256.312 203.339 256.312 144.29C256.312 85.2406 211.815 37.3716 156.926 37.3716C102.036 37.3716 57.5397 85.2406 57.5397 144.29C57.5397 203.339 102.036 251.209 156.926 251.209Z" fill="#CE5C5C"/>
<path opacity="0.5" d="M159.804 227.716C207.609 227.716 246.363 186.025 246.363 134.597C246.363 83.1685 207.609 41.4777 159.804 41.4777C111.999 41.4777 73.2454 83.1685 73.2454 134.597C73.2454 186.025 111.999 227.716 159.804 227.716Z" fill="#CE5C5C"/>
<path opacity="0.6" d="M162.703 204.245C203.424 204.245 236.435 168.732 236.435 124.926C236.435 81.1187 203.424 45.6062 162.703 45.6062C121.983 45.6062 88.972 81.1187 88.972 124.926C88.972 168.732 121.983 204.245 162.703 204.245Z" fill="#CE5C5C"/>
<path opacity="0.7" d="M165.581 180.775C199.218 180.775 226.485 151.44 226.485 115.255C226.485 79.0691 199.218 49.7349 165.581 49.7349C131.945 49.7349 104.678 79.0691 104.678 115.255C104.678 151.44 131.945 180.775 165.581 180.775Z" fill="#CE5C5C"/>
<path opacity="0.8" d="M168.481 157.282C195.033 157.282 216.557 134.126 216.557 105.561C216.557 76.997 195.033 53.8411 168.481 53.8411C141.929 53.8411 120.404 76.997 120.404 105.561C120.404 134.126 141.929 157.282 168.481 157.282Z" fill="#CE5C5C"/>
<path opacity="0.9" d="M171.359 133.811C190.827 133.811 206.608 116.834 206.608 95.8906C206.608 74.9475 190.827 57.9698 171.359 57.9698C151.891 57.9698 136.11 74.9475 136.11 95.8906C136.11 116.834 151.891 133.811 171.359 133.811Z" fill="#CE5C5C"/>
<g opacity="0.4">
<path d="M102.801 236.96C108.111 238.679 113.066 241.474 117.401 245.195C118.206 246.038 119.128 246.742 120.133 247.282C121.625 247.837 123.256 247.765 124.701 247.08C125.484 246.784 126.198 246.31 126.796 245.691C127.393 245.071 127.86 244.32 128.163 243.49C128.544 241.339 128.18 239.112 127.141 237.229C125.988 234.155 124.533 231.222 122.803 228.478C119.195 223.161 111.686 219.503 105.7 222.487C99.7136 225.472 94.5827 233.976 102.801 236.96Z" fill="#CE5C5C"/>
<path d="M127.809 218.538C128.903 220.811 130.726 222.581 132.94 223.52C133.442 223.787 133.995 223.926 134.556 223.926C135.117 223.926 135.67 223.787 136.173 223.52C137.104 222.712 137.721 221.56 137.904 220.288C138.515 218.592 138.515 216.712 137.904 215.015C137.361 212.884 136.819 210.73 136.298 208.598C135.213 204.335 129.79 203.437 126.912 206.601C124.033 209.765 126.328 215.621 127.809 218.538Z" fill="#CE5C5C"/>
<path d="M213.992 200.857C215.011 203.697 216.806 206.14 219.14 207.862C221.475 209.584 224.239 210.505 227.069 210.505C228.32 210.535 229.554 210.194 230.636 209.518C231.428 208.829 232.07 207.962 232.517 206.977C232.964 205.992 233.205 204.914 233.222 203.819C233.253 201.642 233.399 199.47 233.66 197.311C234.51 194.595 235.585 191.967 236.872 189.458C237.506 188.196 237.819 186.775 237.779 185.341C237.738 183.907 237.347 182.509 236.643 181.29C233.118 176.601 221.792 179.585 218.059 182.682C213.742 186.249 212.24 195.673 213.992 200.857Z" fill="#CE5C5C"/>
<path d="M221.167 155.778C222.585 156.912 224.153 157.812 225.818 158.448C227.964 159.557 229.826 161.213 231.241 163.273C232.033 164.417 232.972 165.875 234.307 165.763C234.765 165.679 235.196 165.473 235.56 165.163C235.924 164.854 236.211 164.45 236.393 163.991C237.364 161.707 237.512 159.116 236.81 156.721C236.104 153.41 234.339 150.472 231.825 148.419C229.468 146.646 224.483 145.344 221.751 146.982C221.11 147.469 220.578 148.103 220.193 148.838C219.807 149.572 219.579 150.39 219.523 151.232C219.467 152.073 219.585 152.917 219.87 153.704C220.154 154.49 220.597 155.199 221.167 155.778Z" fill="#CE5C5C"/>
<path d="M56.1005 156.474L56.2257 156.698C56.4425 157.208 56.782 157.645 57.2089 157.966C57.6358 158.286 58.1347 158.478 58.6537 158.522C59.1728 158.565 59.6933 158.459 60.1612 158.213C60.6291 157.967 61.0274 157.592 61.3149 157.125C62.9001 155.128 62.0241 151.986 63.4007 149.81C65.695 146.422 61.9406 141.283 58.4366 143.437C54.9325 145.591 54.4319 153.041 56.1005 156.474Z" fill="#CE5C5C"/>
<path d="M64.9233 138.748C65.9871 142.091 68.5526 144.604 70.096 147.723C71.6395 150.842 75.811 155.689 79.023 152.009C81.6093 149.047 82.5688 141.575 82.0891 137.76C81.4008 132.443 76.8538 125.083 71.0137 125.891C65.9871 126.564 63.4216 134.058 64.9233 138.748Z" fill="#CE5C5C"/>
<path d="M136.569 161.792C136.389 163.647 136.692 165.519 137.445 167.2C138.664 169.225 140.335 170.891 142.305 172.046C145.517 174.29 149.208 176.691 153.004 175.906C153.841 175.78 154.633 175.425 155.305 174.875C155.978 174.325 156.507 173.598 156.842 172.764C157.677 170.139 155.737 167.491 155.278 164.731C154.757 161.455 156.404 158.112 155.841 154.836C154.944 149.563 148.312 146.467 143.869 148.598C139.989 150.438 136.861 157.506 136.569 161.792Z" fill="#CE5C5C"/>
<path d="M146.601 143.729C148.916 144.851 154.381 144.604 154.736 141.373C155.215 137.087 146.518 133.632 144.057 136.683C142.346 138.815 144.724 142.786 146.601 143.729Z" fill="#CE5C5C"/>
<path d="M158.97 153.736C158.594 155.98 158.365 158.493 159.929 159.907C160.459 160.317 161.071 160.587 161.716 160.696C162.361 160.806 163.02 160.75 163.642 160.535C165.563 159.816 167.163 158.347 168.125 156.419C169.087 154.49 169.341 152.244 168.835 150.124C168.585 148.693 167.84 147.418 166.75 146.556C160.638 142.338 159.762 149.249 158.97 153.736Z" fill="#CE5C5C"/>
<path d="M172.903 62.1434C175.739 64.2526 179.16 65.1053 182.184 66.8779C184.372 68.1618 186.29 69.9189 187.816 72.0387C188.838 73.4523 189.901 75.1127 191.466 75.4044C192.119 75.4676 192.776 75.3644 193.385 75.1032C193.994 74.842 194.537 74.4302 194.97 73.9011C197.723 70.9168 197.911 66.0477 196.743 62.0088C194.657 54.8061 186.835 47.1771 179.452 47.1097C171.484 47.0424 164.726 56.1972 172.903 62.1434Z" fill="#CE5C5C"/>
<path d="M171.255 77.4461C172.095 78.9042 173.437 79.945 174.988 80.3407C176.155 80.5149 177.343 80.2536 178.352 79.6003C179.362 78.947 180.133 77.9412 180.536 76.7505C184.145 66.0699 162.724 63.5119 171.255 77.4461Z" fill="#CE5C5C"/>
</g>
<path opacity="0.05" d="M145.287 274.342C115.612 271.845 88.0749 256.769 68.7325 232.43C49.39 208.091 39.8269 176.483 42.1468 144.559C42.2928 142.45 42.5014 140.386 42.7517 138.344C50.2544 164.72 65.9247 187.539 87.1562 203.004C108.388 218.469 133.901 225.649 159.452 223.349C185.003 221.05 209.053 209.409 227.6 190.364C246.148 171.319 258.076 146.016 261.401 118.665C266.717 137.48 267.687 157.406 264.225 176.715C260.763 196.024 252.974 214.133 241.535 229.47C230.095 244.808 215.349 256.912 198.577 264.731C181.805 272.55 163.513 275.85 145.287 274.342Z" fill="#455A64"/>
<path opacity="0.3" d="M249.721 198.052C240.741 219.778 225.576 237.874 206.416 249.727C187.255 261.58 165.09 266.578 143.118 263.999C121.146 261.42 100.503 251.397 84.1698 235.378C67.8361 219.359 56.6557 198.172 52.2419 174.873C62.1098 196.774 77.9863 214.891 97.7281 226.777C117.47 238.663 140.127 243.747 162.639 241.343C185.152 238.938 206.437 229.16 223.621 213.329C240.804 197.499 253.059 176.377 258.731 152.816C258.693 168.406 255.624 183.814 249.721 198.052Z" fill="#CE5C5C"/>
<path opacity="0.5" d="M131.772 124.634C148.855 124.634 162.703 109.736 162.703 91.3578C162.703 72.98 148.855 58.0818 131.772 58.0818C114.688 58.0818 100.84 72.98 100.84 91.3578C100.84 109.736 114.688 124.634 131.772 124.634Z" fill="#C53F3F"/>
<path opacity="0.5" d="M215.535 158.965C232.618 158.965 246.467 144.067 246.467 125.689C246.467 107.311 232.618 92.4127 215.535 92.4127C198.452 92.4127 184.604 107.311 184.604 125.689C184.604 144.067 198.452 158.965 215.535 158.965Z" fill="#CE5C5C"/>
<path opacity="0.5" d="M100.467 81.457C102.111 78.7388 104.467 76.6057 107.238 75.3276C110.008 74.0495 113.069 73.6836 116.033 74.2761C118.996 74.8687 121.73 76.3931 123.889 78.6567C126.048 80.9203 127.534 83.8216 128.161 86.9938C128.787 90.166 128.526 93.4668 127.409 96.479C126.292 99.4913 124.37 102.08 121.886 103.917C119.402 105.755 116.468 106.759 113.454 106.803C110.439 106.847 107.481 105.929 104.951 104.165C103.27 102.992 101.82 101.473 100.684 99.6967C99.5483 97.9201 98.7494 95.9201 98.3329 93.8111C97.9164 91.702 97.8905 89.5253 98.2567 87.4054C98.6229 85.2856 99.374 83.2643 100.467 81.457Z" fill="#CE5C5C"/>
</svg>
