<svg width="164" height="88" viewBox="0 0 164 88" fill="none" xmlns="http://www.w3.org/2000/svg">
<path d="M106.681 26.2302C110.042 36.961 99.5957 49.8016 85.1097 54.3419C70.6237 58.8821 54.7227 54.2759 51.3605 43.5372C47.9983 32.7986 58.1944 19.2904 72.7196 14.7432C87.2449 10.1959 103.31 15.4851 106.681 26.2302Z" fill="#C7C7C7"/>
<path d="M105.324 28.4322C108.586 39.0983 98.8834 51.7249 85.3034 56.0877C71.7235 60.4504 56.7267 55.7356 53.4635 45.0617C50.2003 34.3879 59.6614 21.0973 73.2781 16.7279C86.8949 12.3586 102.052 17.7519 105.324 28.4322Z" fill="#353232"/>
<path d="M76.3686 20.0282C76.672 21.0557 75.831 22.2532 74.6354 22.6528C73.4398 23.0524 72.1063 22.5795 71.8028 21.5513C71.4993 20.5231 72.318 19.2616 73.5169 18.8614C74.7157 18.4612 76.0644 18.9994 76.3686 20.0282Z" fill="#C7C7C7"/>
<path d="M70.2434 23.6709C70.7708 28.8394 68.7072 26.3774 66.5837 28.7387C64.4602 31.1 61.6022 29.6372 62.7318 26.8536C63.8614 24.07 62.4879 24.3461 64.9063 22.6522C67.3248 20.9583 69.7161 18.5025 70.2434 23.6709Z" fill="#C7C7C7"/>
<path d="M84.4836 58.6819C126.671 51.0722 159.668 38.2319 158.184 30.0022C156.699 21.7726 121.296 21.27 79.108 28.8796C36.9201 36.4893 3.92346 49.3296 5.40789 57.5592C6.89232 65.7889 42.2957 66.2915 84.4836 58.6819Z" fill="#A6A6A6"/>
<path d="M84.7638 59.5626C126.952 51.9529 159.948 39.1126 158.464 30.883C156.98 22.6533 121.576 22.1507 79.3883 29.7603C37.2004 37.37 4.20373 50.2103 5.68816 58.4399C7.17259 66.6696 42.576 67.1722 84.7638 59.5626Z" fill="#C7C7C7"/>
<path d="M53.8761 43.4317C56.449 43.1052 58.5541 42.9685 60.5536 42.875C62.2691 42.7779 63.9894 42.8032 65.7013 42.9507C63.122 43.2863 61.0169 43.4231 59.016 43.5087C57.3032 43.6133 55.585 43.5876 53.8761 43.4317Z" fill="#A6A6A6"/>
<path d="M27.5486 45.6138C31.1995 46.1046 34.5435 46.6612 37.7984 47.2153C41.0533 47.7695 44.2249 48.3713 47.1055 49.0014C43.4545 48.5106 40.1011 47.9602 36.8557 47.3999C33.6102 46.8395 30.4292 46.2439 27.5486 45.6138Z" fill="#A6A6A6"/>
<path d="M15.2679 53.8599C19.0669 54.2122 22.8521 54.6515 26.6374 55.0907C30.4226 55.5299 34.1941 56.0561 37.9674 56.6403C34.1684 56.288 30.3831 55.8487 26.5979 55.4095C22.8126 54.9703 19.0334 54.4422 15.2679 53.8599Z" fill="#A6A6A6"/>
<path d="M16.9355 63.1062C19.86 62.6347 23.0631 62.323 26.342 61.9797C29.6208 61.6365 33.0396 61.3332 36.7151 61.0989C33.7952 61.5308 30.5867 61.89 27.3008 62.2244C24.0149 62.5589 20.6111 62.8719 16.9355 63.1062Z" fill="#A6A6A6"/>
<path d="M50.6031 64.793C51.9223 63.6904 53.3224 62.688 54.7914 61.7945C56.4793 60.7369 58.2899 59.641 60.601 58.4468C59.2795 59.5466 57.8797 60.5488 56.4127 61.4453C54.7169 62.5043 52.9128 63.5909 50.6031 64.793Z" fill="#A6A6A6"/>
<path d="M85.5589 57.2813C84.9714 56.2824 84.5072 55.2159 84.1763 54.1053C83.8106 53.007 83.5833 51.8674 83.4996 50.7129C84.086 51.7094 84.5498 52.7732 84.8808 53.881C85.247 54.9819 85.4748 56.1241 85.5589 57.2813Z" fill="#A6A6A6"/>
<path d="M80.5443 41.4055C79.9616 40.4041 79.4976 39.3383 79.1616 38.2295C78.8197 37.1213 78.6131 35.9758 78.5463 34.8179C79.1327 35.8174 79.5969 36.8837 79.9289 37.9939C80.2747 39.1012 80.4815 40.2472 80.5443 41.4055Z" fill="#A6A6A6"/>
<path d="M120.085 42.9881C117.512 43.3145 115.399 43.4527 113.408 43.5447C111.692 43.6474 109.972 43.6221 108.26 43.4691C110.839 43.1334 112.946 43.0045 114.938 42.9125C116.653 42.8153 118.373 42.8406 120.085 42.9881Z" fill="#A6A6A6"/>
<path d="M152.52 38.6036C148.951 39.5145 145.637 40.2662 142.419 40.9681C139.201 41.67 136.031 42.3227 133.124 42.8148C136.693 41.9038 139.999 41.1536 143.223 40.4424C146.447 39.7313 149.605 39.097 152.52 38.6036Z" fill="#A6A6A6"/>
<path d="M149.849 30.1695C146.244 31.419 142.615 32.5836 138.987 33.7482C135.359 34.9129 131.699 35.994 128.03 37.0203C131.635 35.7708 135.263 34.6062 138.891 33.4416C142.52 32.277 146.171 31.1972 149.849 30.1695Z" fill="#A6A6A6"/>
<path d="M127.888 30.0818C125.229 31.3711 122.244 32.5979 119.2 33.8596C116.156 35.1212 112.977 36.3991 109.525 37.6859C112.183 36.3966 115.169 35.1697 118.211 33.9002C121.254 32.6307 124.442 31.3593 127.888 30.0818Z" fill="#A6A6A6"/>
<path d="M100.29 32.4182C98.968 33.5207 97.5654 34.5235 96.0944 35.4182C94.4 36.485 92.5958 37.5716 90.2847 38.7659C91.6073 37.6675 93.007 36.6655 94.473 35.7673C96.1766 34.7069 97.9886 33.6189 100.29 32.4182Z" fill="#A6A6A6"/>
<path d="M154.85 32.2042C154.763 32.2654 154.662 32.3049 154.556 32.3194C154.45 32.3338 154.343 32.3228 154.242 32.2873C154.142 32.2517 154.051 32.1926 153.978 32.115C153.905 32.0373 153.851 31.9433 153.822 31.8407C153.793 31.7382 153.788 31.6301 153.809 31.5255C153.83 31.4209 153.875 31.3228 153.942 31.2393C154.008 31.1558 154.093 31.0894 154.191 31.0457C154.288 31.0019 154.394 30.982 154.501 30.9877C154.588 30.9386 154.685 30.9097 154.784 30.903C154.884 30.8963 154.984 30.912 155.077 30.9489C155.17 30.9858 155.253 31.0431 155.321 31.1164C155.389 31.1897 155.439 31.2773 155.469 31.3727C155.498 31.4681 155.506 31.569 155.492 31.6678C155.477 31.7666 155.441 31.861 155.385 31.9439C155.33 32.0269 155.256 32.0963 155.17 32.1472C155.084 32.198 154.988 32.2289 154.888 32.2377L154.85 32.2042Z" fill="#505DD5"/>
<path d="M13.4571 56.9244C13.3715 56.9696 13.277 56.9955 13.1803 57.0002C13.0836 57.0049 12.987 56.9883 12.8974 56.9516C12.8078 56.915 12.7273 56.859 12.6617 56.7879C12.5961 56.7167 12.5469 56.6319 12.5176 56.5397C12.4883 56.4474 12.4796 56.3498 12.4922 56.2538C12.5047 56.1578 12.5382 56.0657 12.5903 55.984C12.6423 55.9024 12.7116 55.8332 12.7933 55.7812C12.8751 55.7293 12.9672 55.696 13.0632 55.6835C13.1488 55.6383 13.2433 55.6124 13.34 55.6077C13.4367 55.603 13.5333 55.6196 13.6229 55.6563C13.7125 55.6929 13.7929 55.7489 13.8586 55.82C13.9242 55.8912 13.9734 55.976 14.0027 56.0682C14.032 56.1605 14.0406 56.2581 14.0281 56.3541C14.0155 56.4501 13.9821 56.5422 13.93 56.6239C13.878 56.7055 13.8087 56.7747 13.7269 56.8267C13.6452 56.8786 13.5531 56.9119 13.4571 56.9244Z" fill="#505DD5"/>
<path d="M25.1326 46.7198C25.0083 46.7334 24.8827 46.7114 24.7703 46.6565C24.658 46.6017 24.5635 46.516 24.4978 46.4096C24.4321 46.3032 24.3979 46.1803 24.3993 46.0553C24.4006 45.9302 24.4373 45.8081 24.5052 45.7031C24.5731 45.5981 24.6694 45.5144 24.7829 45.4619C24.8964 45.4094 25.0225 45.3901 25.1465 45.4064C25.2705 45.4226 25.3873 45.4736 25.4835 45.5536C25.5797 45.6335 25.6512 45.7391 25.6898 45.8581C25.7261 46.0458 25.6883 46.2403 25.5845 46.4009C25.4806 46.5615 25.3187 46.6758 25.1326 46.7198Z" fill="#505DD5"/>
<path d="M50.5132 43.7614C50.3885 43.7752 50.2625 43.7533 50.1498 43.6983C50.0371 43.6432 49.9424 43.5572 49.8767 43.4503C49.811 43.3434 49.7771 43.2201 49.7788 43.0946C49.7806 42.9692 49.818 42.8468 49.8867 42.7419C49.9554 42.6369 50.0525 42.5536 50.1667 42.5017C50.2809 42.4499 50.4076 42.4315 50.5318 42.4489C50.656 42.4663 50.7728 42.5186 50.8684 42.5998C50.964 42.681 51.0346 42.7877 51.0718 42.9075C51.11 43.0947 51.0727 43.2894 50.9681 43.4493C50.8635 43.6092 50.7 43.7213 50.5132 43.7614Z" fill="#505DD5"/>
<path d="M77.7567 33.1788C77.632 33.1926 77.5059 33.1707 77.3932 33.1157C77.2805 33.0606 77.1858 32.9746 77.1201 32.8677C77.0544 32.7608 77.0205 32.6375 77.0223 32.512C77.024 32.3866 77.0614 32.2642 77.1301 32.1593C77.1988 32.0543 77.2959 31.971 77.4101 31.9191C77.5244 31.8673 77.651 31.8489 77.7752 31.8663C77.8995 31.8837 78.0162 31.936 78.1118 32.0172C78.2074 32.0984 78.278 32.2051 78.3153 32.3249C78.3513 32.5119 78.3131 32.7056 78.2088 32.865C78.1046 33.0243 77.9424 33.1369 77.7567 33.1788Z" fill="#505DD5"/>
<path d="M102.635 31.9306C102.51 31.9444 102.384 31.9225 102.271 31.8674C102.159 31.8123 102.064 31.7263 101.998 31.6195C101.933 31.5126 101.899 31.3892 101.9 31.2638C101.902 31.1384 101.94 31.016 102.008 30.911C102.077 30.8061 102.174 30.7228 102.288 30.6709C102.403 30.619 102.529 30.6007 102.653 30.6181C102.778 30.6354 102.894 30.6878 102.99 30.769C103.086 30.8502 103.156 30.9569 103.193 31.0767C103.23 31.2637 103.191 31.4574 103.087 31.6167C102.983 31.7761 102.821 31.8887 102.635 31.9306Z" fill="#505DD5"/>
<path d="M131.944 28.264C131.819 28.2794 131.692 28.2589 131.579 28.2049C131.465 28.1508 131.369 28.0655 131.302 27.9589C131.236 27.8523 131.2 27.7289 131.201 27.603C131.202 27.4772 131.239 27.3543 131.307 27.2486C131.375 27.1429 131.472 27.0589 131.587 27.0064C131.701 26.9539 131.828 26.9352 131.953 26.9523C132.077 26.9694 132.195 27.0217 132.291 27.103C132.386 27.1844 132.457 27.2914 132.495 27.4116C132.514 27.5037 132.516 27.5989 132.499 27.6916C132.482 27.7843 132.447 27.8728 132.396 27.952C132.345 28.0311 132.278 28.0994 132.201 28.153C132.123 28.2065 132.036 28.2443 131.944 28.264Z" fill="#505DD5"/>
<path d="M130.757 43.8075C130.826 44.2403 130.769 44.6836 130.593 45.0851L130.422 45.4692L128.031 50.6787L43.0775 65.9071L38.9837 61.8216L38.7227 61.564C38.422 61.2471 38.2183 60.8508 38.1358 60.4218C37.1879 55.1569 57.1644 47.1688 82.7552 42.5876C108.346 38.0063 129.809 38.5347 130.757 43.8075Z" fill="#A6A6A6"/>
<path d="M87.5977 65.8128C111.222 61.3615 129.631 53.812 128.715 48.9504C127.799 44.0889 107.905 43.7564 84.2805 48.2077C60.6563 52.659 42.2477 60.2086 43.1637 65.0701C44.0798 69.9316 63.9735 70.2641 87.5977 65.8128Z" fill="#C7C7C7"/>
<path d="M83.9815 51.6786C81.7816 52.367 81.341 51.9444 81.2026 51.4916C81.0643 51.0387 81.1848 50.4502 83.3848 49.7618C85.5847 49.0735 86.0253 49.4961 86.1623 49.941C86.2992 50.386 86.1815 50.9903 83.9815 51.6786Z" fill="#DBDBDB"/>
<path d="M66.2365 56.2884C65.6412 56.4756 65.0246 56.5868 64.4013 56.6194C63.6336 56.6284 63.4653 56.189 63.4285 55.9851C63.2998 55.2714 64.2234 54.87 64.6664 54.6767C64.9595 54.551 65.2868 54.4353 65.6234 54.326C66.2224 54.1424 66.8411 54.0308 67.4664 53.9935C68.2277 53.9939 68.3946 54.4253 68.4392 54.6278C68.5694 55.3494 67.6443 55.743 67.1936 55.9376C66.9091 56.0214 66.5739 56.1385 66.2365 56.2884Z" fill="#DBDBDB"/>
<path d="M54.0947 60.8836C53.7418 60.9473 53.408 61.0723 53.1035 61.1353C52.6251 61.2216 51.6213 61.4026 51.3363 60.7657C51.3038 60.5853 51.1512 60.1432 51.7862 59.7128C52.3213 59.3896 52.8969 59.1388 53.4979 58.9668C53.8228 58.8623 54.1532 58.7757 54.4876 58.7073C54.966 58.621 55.962 58.4414 56.247 59.0783C56.3266 59.2502 56.4322 59.7008 55.8064 60.1376C55.2673 60.453 54.6927 60.7034 54.0947 60.8836Z" fill="#DBDBDB"/>
<path d="M50.4024 67.2235C48.2025 67.9118 47.7618 67.4892 47.617 67.0457C47.4723 66.6021 47.6057 65.995 49.8056 65.3067C52.0055 64.6183 52.4462 65.0409 52.5831 65.4859C52.7201 65.9309 52.6023 66.5352 50.4024 67.2235Z" fill="#DBDBDB"/>
<path d="M70.1946 69.0737C69.8697 69.1781 69.5393 69.2648 69.2049 69.3332C68.7265 69.4195 67.7305 69.5991 67.4377 68.9636C67.3659 68.7903 67.2511 68.3332 67.8861 67.9029C68.423 67.5832 68.9981 67.3325 69.5978 67.1569C69.9429 67.0946 70.2831 66.9604 70.5875 66.8974C71.0659 66.8111 72.062 66.6314 72.3547 67.2669C72.4279 67.4481 72.5413 67.8973 71.9063 68.3276C71.3694 68.6473 70.7943 68.898 70.1946 69.0737Z" fill="#DBDBDB"/>
<path d="M88.4859 64.2601C86.2938 64.947 85.8454 64.5258 85.7084 64.0808C85.5715 63.6359 85.6906 63.0394 87.8906 62.3511C90.0905 61.6627 90.5311 62.0853 90.6681 62.5303C90.805 62.9753 90.6873 63.5796 88.4859 64.2601Z" fill="#DBDBDB"/>
<path d="M106.182 57.7642C105.585 57.9559 104.966 58.0677 104.339 58.0966C103.579 58.1041 103.45 57.6577 103.413 57.4538C103.283 56.7323 104.199 56.3323 104.651 56.1454C104.963 56.01 105.283 55.8929 105.608 55.7946C106.206 55.6065 106.825 55.4948 107.451 55.4622C108.213 55.4626 108.38 55.894 108.416 56.0979C108.546 56.8195 107.629 57.2117 107.178 57.4063C106.854 57.5456 106.521 57.6651 106.182 57.7642Z" fill="#DBDBDB"/>
<path d="M115.708 48.9637C115.348 48.9881 114.996 49.0049 114.685 48.9995C114.2 48.9786 113.181 48.9348 113.042 48.2508C113.011 48.058 112.999 47.5949 113.713 47.3145C114.307 47.1205 114.923 47.0023 115.547 46.9626C115.887 46.9321 116.228 46.9201 116.569 46.9268C117.055 46.9477 118.066 46.9912 118.204 47.6751C118.244 47.8603 118.248 48.3311 117.542 48.6118C116.946 48.8011 116.331 48.9193 115.708 48.9637Z" fill="#DBDBDB"/>
<path d="M100.638 49.5413C100.303 49.608 99.9653 49.6564 99.6253 49.6862C99.1401 49.7173 98.1301 49.7821 97.9197 49.1168C97.8603 48.9369 97.8068 48.4772 98.4783 48.1147C99.0499 47.8629 99.6493 47.6797 100.264 47.5689C100.622 47.546 100.968 47.4599 101.277 47.432C101.763 47.4009 102.781 47.3356 102.99 47.9929C103.042 48.1813 103.104 48.6405 102.432 48.995C101.86 49.2548 101.257 49.4385 100.638 49.5413Z" fill="#DBDBDB"/>
<path d="M85.4876 50.1518C85.5202 50.3322 84.7812 50.7246 83.7857 51.0419C82.7902 51.3591 81.9333 51.457 81.8772 51.2808C81.8211 51.1047 82.5837 50.708 83.5806 50.3986C84.5775 50.0892 85.4316 49.9757 85.4876 50.1518Z" fill="#505DD5"/>
<path d="M67.4541 54.6436C67.9951 54.6351 67.7644 54.9277 66.9293 55.2808C66.1346 55.6321 65.2885 55.8531 64.4236 55.9352C63.8826 55.9437 64.1132 55.6511 64.9484 55.298C65.743 54.9465 66.5891 54.7255 67.4541 54.6436Z" fill="#505DD5"/>
<path d="M54.6065 59.3661C55.5005 59.2048 55.8554 59.2866 55.4088 59.5939C54.6505 60.0164 53.8295 60.3148 52.9769 60.4779C52.0828 60.6392 51.728 60.5574 52.1825 60.2487C52.9376 59.8258 53.7562 59.5278 54.6065 59.3661Z" fill="#505DD5"/>
<path d="M50.0015 65.9435C50.9984 65.6341 51.8525 65.5205 51.9086 65.6967C51.9646 65.8728 51.2021 66.2695 50.1988 66.5881C49.1954 66.9068 48.3556 67.0096 48.2995 66.8335C48.2435 66.6574 49.006 66.2607 50.0015 65.9435Z" fill="#505DD5"/>
<path d="M68.2838 68.4466C69.0426 68.0246 69.8626 67.7237 70.7142 67.5547C71.6083 67.3934 71.9553 67.4766 71.5087 67.7839C70.7515 68.2094 69.9309 68.5105 69.0782 68.6758C68.2119 68.8563 67.8371 68.7539 68.2838 68.4466Z" fill="#505DD5"/>
<path d="M86.383 63.8701C86.3505 63.6897 87.0895 63.2973 88.0942 62.9865C89.099 62.6757 89.9374 62.5649 89.9934 62.7411C90.0495 62.9172 89.287 63.3139 88.2901 63.6233C87.2931 63.9326 86.4391 64.0462 86.383 63.8701Z" fill="#505DD5"/>
<path d="M104.37 57.4594C103.82 57.4615 104.06 57.1753 104.893 56.8143C105.685 56.4636 106.529 56.243 107.391 56.1613C107.942 56.1593 107.702 56.4455 106.868 56.8064C106.075 57.1533 105.232 57.3737 104.37 57.4594Z" fill="#505DD5"/>
<path d="M114.738 48.3317C113.83 48.2927 113.502 48.135 114.013 47.9337C114.842 47.6838 115.707 47.5701 116.572 47.597C117.48 47.636 117.808 47.7937 117.305 47.9954C116.472 48.2404 115.606 48.3539 114.738 48.3317Z" fill="#505DD5"/>
<path d="M123.067 53.4044C122.709 53.4435 122.358 53.4746 122.047 53.4819C121.561 53.4809 120.541 53.4788 120.375 52.8011C120.336 52.6097 120.305 52.1474 121.007 51.8381C121.592 51.62 122.203 51.4767 122.825 51.4116C123.163 51.3671 123.504 51.3412 123.845 51.334C124.331 51.335 125.343 51.3371 125.509 52.0148C125.556 52.1982 125.579 52.6685 124.885 52.9778C124.298 53.1913 123.688 53.3345 123.067 53.4044Z" fill="#DBDBDB"/>
<path d="M122.072 52.8125C121.164 52.8106 120.83 52.6665 121.332 52.4444C122.15 52.1609 123.009 52.012 123.875 52.0034C124.784 52.0053 125.118 52.1495 124.624 52.3716C123.801 52.6504 122.941 52.7992 122.072 52.8125Z" fill="#505DD5"/>
<path d="M102.457 48.2305C101.654 48.5547 100.805 48.7471 99.9408 48.8003C99.0335 48.8475 98.6918 48.7216 99.1736 48.4731C99.9796 48.1503 100.831 47.9552 101.697 47.895C102.604 47.8319 102.947 47.9816 102.457 48.2305Z" fill="#505DD5"/>
<path d="M119.249 53.5205C119.297 53.7948 119.256 54.0774 119.13 54.3261L119.01 54.5809L117.302 57.9981L57.4019 69.231L54.538 66.6426L54.3608 66.4857C54.1569 66.2861 54.0164 66.0309 53.9569 65.7518C53.319 62.3495 67.42 56.8539 85.4491 53.4588C103.478 50.0638 118.611 50.1182 119.249 53.5205Z" fill="#DBDBDB"/>
<path d="M118.045 57.4569C118.638 60.6142 105.6 65.6943 88.9217 68.8262C72.2433 71.9581 58.2546 71.9547 57.6625 68.8133C57.0704 65.672 70.1072 60.576 86.7777 57.4445C103.448 54.3131 117.452 54.3075 118.045 57.4569Z" fill="#EBEBEB"/>
<path d="M103.131 60.1131C103.404 61.4919 96.7876 63.9574 88.3412 65.6256C79.8949 67.2938 72.8326 67.5219 72.5684 66.1585C72.3041 64.7951 78.9119 62.3222 87.3577 60.646C95.8035 58.9699 102.858 58.7423 103.131 60.1131Z" fill="#505DD5"/>
</svg>
